#N canvas 0 0 1936 992 10;
#X obj 8 940 cnv 15 824 341 empty empty empty 20 12 0 14 #dbfaf7 #373737 0;
#X obj 8 9 cnv 15 550 387 empty empty empty 20 12 0 14 #ffd6e3 #373737 0;
#X obj 8 408 cnv 15 550 202 empty empty empty 20 12 0 14 #e9f7cd #373737 0;
#X obj 8 629 cnv 15 824 286 empty empty empty 20 12 0 14 #eccfcf #373737 0;
#X obj -793 276 *~ 0.2;
#N canvas 0 52 1920 989 gates 0;
#X obj 18 237 soundfiler;
#N canvas 0 50 450 250 (subpatch) 0;
#X array waveformR 873594 float 4;
#X coords 0 1 873593 -1 200 140 1;
#X restore 1241 45 graph;
#X obj 420 175 *~;
#X obj 556 175 *~;
#N canvas 0 50 450 250 (subpatch) 0;
#X array waveformL 873594 float 4;
#X coords 0 1 873593 -1 200 140 1;
#X restore 1029 45 graph;
#X text 689 130 Volume;
#X obj 728 338 env~ 1024 612;
#X obj 756 372 - 100;
#X floatatom 756 424 5 0 0 0 - - - 0;
#X obj 816 575 bng 19 250 50 0 empty empty empty 0 -10 0 12 #fcfcfc #000000 #000000;
#X obj 816 637 outlet;
#X obj 499 19 inlet;
#X obj 756 505 moses -40;
#X obj 275 335 env~ 1024 612;
#X obj 303 369 - 100;
#X floatatom 303 421 5 0 0 0 - - - 0;
#X obj 363 572 bng 19 250 50 0 empty empty empty 0 -10 0 12 #fcfcfc #000000 #000000;
#X obj 363 634 outlet;
#X obj 303 502 moses -40;
#X obj 689 165 r volume_recording;
#X obj 30 67 openpanel;
#X obj 30 115 symbol;
#X obj 30 26 r loadfile;
#X msg 18 166 read -resize \$1 waveformL waveformR;
#X obj 420 103 tabplay~ waveformL;
#X obj 556 103 tabplay~ waveformR;
#X obj 939 447 r gateR;
#X obj 460 471 r gateL;
#X obj 885 396 s vmR;
#X obj 451 393 s vmL;
#X obj 876 481 * -1;
#X obj 454 517 * -1;
#X obj 398 231 throw~ channelL;
#X obj 556 231 throw~ channelR;
#X connect 2 0 32 0;
#X connect 3 0 33 0;
#X connect 6 0 7 0;
#X connect 7 0 8 0;
#X connect 7 0 28 0;
#X connect 8 0 12 0;
#X connect 9 0 10 0;
#X connect 11 0 24 0;
#X connect 11 0 25 0;
#X connect 12 1 9 0;
#X connect 13 0 14 0;
#X connect 14 0 15 0;
#X connect 14 0 29 0;
#X connect 15 0 18 0;
#X connect 16 0 17 0;
#X connect 18 1 16 0;
#X connect 19 0 3 1;
#X connect 19 0 2 1;
#X connect 20 0 21 0;
#X connect 21 0 23 0;
#X connect 22 0 20 0;
#X connect 23 0 0 0;
#X connect 24 0 2 0;
#X connect 24 0 13 0;
#X connect 25 0 3 0;
#X connect 25 0 6 0;
#X connect 26 0 30 0;
#X connect 27 0 31 0;
#X connect 30 0 12 1;
#X connect 31 0 18 1;
#X restore -884 0 pd gates;
#X obj 59 141 bng 19 250 50 0 empty empty empty 0 -10 0 12 #fcfcfc #000000 #000000;
#X msg -776 59 next \$1;
#X obj -418 293 hsl 162 19 0 1 0 0 empty empty empty -2 -10 0 12 #fcfcfc #000000 #000000 0 1;
#X obj -949 276 *~ 0.2;
#X msg -949 60 next \$1;
#X obj -776 149 clone FM_rs_2 24;
#X obj -949 149 clone FM_rs_2 24;
#X floatatom -438 349 4 0 0 0 - - - 0;
#X obj -412 418 s trans;
#X msg -415 382 0;
#X msg -377 382 1;
#X msg -334 382 3;
#X msg 100 141 stop;
#X obj -307 125 hsl 162 19 0 1 0 0 empty empty empty -2 -10 0 12 #fcfcfc #000000 #000000 0 1;
#X obj -343 149 s volume_recording;
#X obj 71 219 hsl 162 19 0 1 0 0 empty empty empty -2 -10 0 12 #fcfcfc #000000 #000000 0 1;
#X obj -490 80 * -1;
#X floatatom -448 129 5 0 0 0 - - - 0;
#X floatatom -448 176 5 0 0 0 - - - 0;
#X floatatom -448 262 5 0 0 0 - - - 0;
#X msg -282 86 0;
#X obj -374 89 + 0;
#X obj 474 56 bng 25 250 50 0 empty empty empty 17 7 0 10 #e4e4e4 #4d4d4d #373737;
#X obj 436 98 s loadfile;
#X obj 165 360 s gateR;
#X obj 56 360 s gateL;
#X obj 56 290 knob 50 0 100 0 0 empty empty #E4E4E4 #B7B7B7 #4D4D4D 1 0 0 0 1 270 0 0 0;
#X obj 165 290 knob 50 0 100 0 0 empty empty #E4E4E4 #B7B7B7 #4D4D4D 1 0 0 0 1 270 0 0 0;
#X obj -960 1151 dac~;
#X obj 59 577 s harmonicity;
#X obj 168 577 s mod_index;
#X obj 387 577 s decay;
#X obj 278 577 s mod_decay;
#X obj 59 471 knob 50 0 100 0 2 empty empty #E4E4E4 #B7B7B7 #4D4D4D 1 0 0 0 1 270 0 0 0;
#X obj 168 471 knob 50 0 100 0 4 empty empty #E4E4E4 #B7B7B7 #4D4D4D 1 0 0 0 1 270 0 0 0;
#X obj 278 471 knob 50 0 2000 0 500 empty empty #E4E4E4 #B7B7B7 #4D4D4D 1 0 0 0 1 270 0 0 0;
#X obj 387 471 knob 50 0 3000 0 500 empty empty #E4E4E4 #B7B7B7 #4D4D4D 1 0 0 0 1 270 0 0 0;
#X floatatom 120 471 5 0 0 0 - - - 12;
#X floatatom 229 471 5 0 0 0 - - - 12;
#X floatatom 339 471 5 0 0 0 - - - 12;
#X floatatom 449 471 5 0 0 0 - - - 12;
#X obj 59 539 i;
#X obj 168 539 i;
#X obj 278 539 i;
#X obj 387 539 i;
#X obj 468 267 vu 20 120 empty empty -1 -8 0 10 #e4e4e4 #373737 1 0;
#X floatatom 117 290 5 0 0 0 - - - 12;
#X floatatom 226 290 5 0 0 0 - - - 12;
#X obj 52 1085 scaleculator2;
#X floatatom 52 1177 5 0 0 0 - - - 12;
#X floatatom 52 996 5 0 0 0 - - - 12;
#X obj 328 1225 s scalenotesL;
#X obj 407 1085 scaleculator2;
#X obj 683 1225 s scalenotesR;
#X obj 482 1055 + 12;
#X obj 328 996 r indexscaleL;
#X obj 683 996 r indexscaleR;
#X obj 56 98 metro 10000;
#X obj 56 56 tgl 25 0 empty empty empty 17 7 0 10 #e4e4e4 #4d4d4d #373737 0 1;
#X obj -979 1092 *~ 1;
#X obj -925 1092 *~ 1;
#X obj -975 1204 writesf~ 2;
#X msg -715 1186 start;
#X msg -715 1225 stop;
#X floatatom 190 996 5 0 0 0 - - - 12;
#X obj 52 1225 s ntones;
#N canvas 802 175 784 813 notesL 0;
#X obj 50 47 inlet;
#X obj 50 337 outlet;
#X obj 230 152 r trans;
#X obj 50 133 s indexscaleL;
#X obj 50 168 r scalenotesL;
#X obj 50 93 random 0;
#X obj 122 47 r ntones;
#X connect 0 0 5 0;
#X connect 4 0 1 0;
#X connect 5 0 3 0;
#X connect 6 0 5 1;
#X restore -949 32 pd notesL;
#N canvas 802 175 784 813 notesR 0;
#X obj 432 239 inlet;
#X obj 432 529 outlet;
#X obj 612 344 r trans;
#X obj 432 285 random 7;
#X obj 432 325 s indexscaleR;
#X obj 432 360 r scalenotesR;
#X obj 500 256 r ntones;
#X connect 0 0 3 0;
#X connect 3 0 4 0;
#X connect 5 0 1 0;
#X connect 6 0 3 1;
#X restore -776 31 pd notesR;
#X obj -949 202 hv.reverb~;
#X obj -793 202 hv.reverb~;
#X floatatom 67 848 5 0 0 0 - - - 0;
#X msg 67 867 feedback \$1;
#X floatatom 154 848 5 0 0 1 dB - - 0;
#X msg 154 867 dry-gain \$1;
#X floatatom 242 848 5 0 0 1 dB - - 0;
#X msg 242 867 wet-gain \$1;
#X floatatom 334 848 10 0 0 1 Hz - - 0;
#X floatatom 422 848 10 0 0 1 Hz - - 0;
#X msg 334 867 lowcut \$1;
#X msg 422 867 highcut \$1;
#X obj 67 722 vsl 15 128 0 100 0 0 empty empty empty 0 -9 0 10 #fcfcfc #000000 #000000 0 1;
#X obj 154 722 vsl 15 128 0 100 0 0 empty empty empty 0 -9 0 10 #fcfcfc #000000 #000000 0 1;
#X obj 242 722 vsl 15 128 0 100 0 0 empty empty empty 0 -9 0 10 #fcfcfc #000000 #000000 0 1;
#X obj 334 722 vsl 15 128 0 25000 0 0 empty empty empty 0 -9 0 10 #fcfcfc #000000 #000000 0 1;
#X obj 422 722 vsl 15 128 0 25000 0 0 empty empty empty 0 -9 0 10 #fcfcfc #000000 #000000 0 1;
#X floatatom 507 848 10 0 0 1 Hz - - 0;
#X obj 507 722 vsl 15 128 0 25000 0 0 empty empty empty 0 -9 0 10 #fcfcfc #000000 #000000 0 1;
#X floatatom 602 848 5 0 0 0 - - - 0;
#X obj 602 722 vsl 15 128 0 100 0 0 empty empty empty 0 -9 0 10 #fcfcfc #000000 #000000 0 1;
#X msg 602 867 damp \$1;
#X msg 507 867 crossfreq \$1;
#X msg 67 691 90;
#X msg 242 690 80;
#X msg 507 690 3000;
#X msg 602 689 60;
#X msg 334 690 5;
#X msg 422 690 24000;
#X floatatom 672 848 5 0 0 0 - - - 0;
#X obj 672 722 vsl 15 128 0 2800 0 0 empty empty empty 0 -9 0 10 #fcfcfc #000000 #000000 0 1;
#X msg 672 689 0;
#X msg 672 867 predelay_ms \$1;
#X msg 107 62 30000;
#X msg 170 62 10000;
#X msg -715 1125 open TACONEOTEST2.wav;
#X obj 334 647 loadbang;
#X text 48 630 /// REVERB;
#X text 48 414 /// FM8;
#X text 111 189 dry//wet;
#X text 56 257 gates;
#X obj 376 210 r vmL;
#X obj 472 210 r vmR;
#X text 48 15 /// FIELD RECORDING;
#X text 48 943 /// SCALE;
#X obj 293 330 * -1;
#X obj 345 330 * -1;
#X obj 406 267 vu 20 120 empty empty -1 -8 0 10 #e4e4e4 #373737 1 0;
#X obj -559 158 expr \$1 + \$2;
#X obj 275 203 knob 50 0 1 0 0 empty empty #E4E4E4 #B7B7B7 #4D4D4D 1 0 0 0 1 270 0 0 0;
#X floatatom -230 235 5 0 0 0 - - - 12;
#X obj -450 219 expr ($f1 + $f2);
#X obj -230 260 bng 25 250 50 0 empty empty empty 17 7 0 10 #e4e4e4 #4d4d4d #373737;
#X obj -448 152 * 0;
#X msg 154 690 80;
#X obj -873 979 catch~ channelR;
#X obj -1084 979 catch~ channelL;
#X obj -1095 483 throw~ channelL;
#X obj -980 483 throw~ channelR;
#X obj 376 161 knob 43 0 1 0 0 $panL empty #E4E4E4 #B7B7B7 #4D4D4D 1 0 0 0 1 270 0 0 0;
#X obj -1095 452 *~ $f1;
#X obj -1179 452 *~ (1-$f1);
#X obj -1127 415 expr 1-$f1;
#X obj 472 161 knob 43 0 1 0 0 $panL empty #E4E4E4 #B7B7B7 #4D4D4D 1 0 0 0 1 270 0 0 0;
#X obj -973 415 *~ $f1;
#X obj -927 452 *~ (1-$f1);
#X obj -866 415 expr 1-$f1;
#X text 376 138 pan L;
#X text 472 138 pan R;
#X text 258 184 MaxVolSynth;
#X text -1127 441 comment;
#X connect 4 0 138 0;
#X connect 4 0 139 0;
#X connect 5 0 72 0;
#X connect 5 1 73 0;
#X connect 6 0 5 0;
#X connect 7 0 11 0;
#X connect 8 0 4 1;
#X connect 8 0 9 1;
#X connect 8 0 13 0;
#X connect 9 0 135 0;
#X connect 9 0 134 0;
#X connect 10 0 12 0;
#X connect 11 0 75 0;
#X connect 12 0 74 0;
#X connect 15 0 14 0;
#X connect 16 0 14 0;
#X connect 17 0 14 0;
#X connect 18 0 5 0;
#X connect 19 0 20 0;
#X connect 21 0 22 0;
#X connect 21 0 27 0;
#X connect 22 0 23 0;
#X connect 23 0 127 0;
#X connect 24 0 19 0;
#X connect 24 0 125 0;
#X connect 25 0 8 0;
#X connect 26 0 27 1;
#X connect 27 0 19 0;
#X connect 28 0 29 0;
#X connect 32 0 31 0;
#X connect 32 0 52 0;
#X connect 32 0 119 0;
#X connect 33 0 30 0;
#X connect 33 0 53 0;
#X connect 33 0 120 0;
#X connect 39 0 47 0;
#X connect 40 0 48 0;
#X connect 41 0 49 0;
#X connect 42 0 46 0;
#X connect 42 0 50 0;
#X connect 47 0 43 0;
#X connect 47 0 35 0;
#X connect 48 0 44 0;
#X connect 48 0 36 0;
#X connect 49 0 45 0;
#X connect 49 0 38 0;
#X connect 50 0 37 0;
#X connect 54 0 55 0;
#X connect 54 1 57 0;
#X connect 55 0 71 0;
#X connect 56 0 54 0;
#X connect 56 0 60 0;
#X connect 58 1 59 0;
#X connect 60 0 58 0;
#X connect 61 0 54 2;
#X connect 62 0 58 2;
#X connect 63 0 6 0;
#X connect 64 0 63 0;
#X connect 65 0 34 0;
#X connect 65 0 67 0;
#X connect 66 0 34 1;
#X connect 66 0 67 1;
#X connect 68 0 67 0;
#X connect 69 0 67 0;
#X connect 70 0 54 1;
#X connect 70 0 58 1;
#X connect 72 0 10 0;
#X connect 73 0 7 0;
#X connect 74 0 9 0;
#X connect 75 0 4 0;
#X connect 76 0 77 0;
#X connect 77 0 75 1;
#X connect 77 0 74 1;
#X connect 78 0 79 0;
#X connect 79 0 75 1;
#X connect 79 0 74 1;
#X connect 80 0 81 0;
#X connect 81 0 75 1;
#X connect 81 0 74 1;
#X connect 82 0 84 0;
#X connect 83 0 85 0;
#X connect 84 0 75 1;
#X connect 84 0 74 1;
#X connect 85 0 75 1;
#X connect 85 0 74 1;
#X connect 86 0 76 0;
#X connect 87 0 78 0;
#X connect 88 0 80 0;
#X connect 89 0 82 0;
#X connect 90 0 83 0;
#X connect 91 0 96 0;
#X connect 92 0 91 0;
#X connect 93 0 95 0;
#X connect 94 0 93 0;
#X connect 95 0 75 1;
#X connect 95 0 74 1;
#X connect 96 0 75 1;
#X connect 96 0 74 1;
#X connect 97 0 86 0;
#X connect 98 0 88 0;
#X connect 99 0 92 0;
#X connect 100 0 94 0;
#X connect 101 0 89 0;
#X connect 102 0 90 0;
#X connect 103 0 106 0;
#X connect 104 0 103 0;
#X connect 105 0 104 0;
#X connect 106 0 75 1;
#X connect 106 0 95 0;
#X connect 106 0 74 1;
#X connect 107 0 63 1;
#X connect 108 0 63 1;
#X connect 109 0 67 0;
#X connect 110 0 97 0;
#X connect 110 0 128 0;
#X connect 110 0 98 0;
#X connect 110 0 101 0;
#X connect 110 0 102 0;
#X connect 110 0 99 0;
#X connect 110 0 100 0;
#X connect 110 0 105 0;
#X connect 115 0 121 0;
#X connect 116 0 51 0;
#X connect 119 0 121 1;
#X connect 120 0 51 1;
#X connect 123 0 124 0;
#X connect 123 0 127 1;
#X connect 124 0 125 1;
#X connect 124 0 126 0;
#X connect 125 0 25 0;
#X connect 126 0 125 0;
#X connect 127 0 24 0;
#X connect 128 0 87 0;
#X connect 129 0 66 0;
#X connect 130 0 65 0;
#X connect 133 0 134 1;
#X connect 133 0 136 0;
#X connect 134 0 132 0;
#X connect 135 0 131 0;
#X connect 136 0 135 1;
#X connect 137 0 138 1;
#X connect 137 0 140 0;
#X connect 138 0 132 0;
#X connect 139 0 131 0;
#X connect 140 0 139 1;
