#N canvas 234 234 450 300 12;
#X obj 51 34 inlet;
#X obj 60 141 vline~;
#X obj 60 165 osc~;
#X obj 60 189 *~;
#X obj 60 213 outlet~;
#X msg 219 115 1 4 \, 0.9 65 4 \, 0 360 69;
#X obj 219 139 vline~;
#X obj 219 163 pow~ 1.5;
#X msg 60 117 250 0 \, 50 10 0;
#X connect 0 0 8 0;
#X connect 0 0 5 0;
#X connect 1 0 2 0;
#X connect 2 0 3 0;
#X connect 3 0 4 0;
#X connect 5 0 6 0;
#X connect 6 0 7 0;
#X connect 7 0 3 1;
#X connect 8 0 1 0;
