#N canvas 0 25 1920 941 12;
#X obj 743 168 bng 15 250 50 0 empty empty empty 17 7 0 10 #fcfcfc #000000 #000000;
#X obj 743 221 int 1;
#X floatatom 743 250 5 0 0 0 - - - 0;
#X obj 743 278 % 12;
#X obj 743 307 + 1;
#X floatatom 743 339 5 0 0 0 - - - 0;
#X obj 393 432 bng 15 250 50 0 empty empty empty 17 7 0 10 #fcfcfc #000000 #000000;
#X obj 393 456 s Un;
#X obj 445 432 bng 15 250 50 0 empty empty empty 17 7 0 10 #fcfcfc #000000 #000000;
#X obj 495 432 bng 15 250 50 0 empty empty empty 17 7 0 10 #fcfcfc #000000 #000000;
#X obj 551 432 bng 15 250 50 0 empty empty empty 17 7 0 10 #fcfcfc #000000 #000000;
#X obj 627 432 bng 15 250 50 0 empty empty empty 17 7 0 10 #fcfcfc #000000 #000000;
#X obj 445 456 s Dos;
#X obj 495 456 s Tres;
#X obj 551 456 s Cuatro;
#X obj 627 456 s Cinco;
#X obj 692 432 bng 15 250 50 0 empty empty empty 17 7 0 10 #fcfcfc #000000 #000000;
#X obj 692 454 s Seis;
#X obj 393 403 sel 1;
#X obj 445 403 sel 2;
#X obj 495 403 sel 3;
#X obj 550 404 sel 4;
#X obj 627 403 sel 5;
#X obj 692 401 sel 6;
#X obj 759 403 sel 7;
#X obj 759 432 bng 15 250 50 0 empty empty empty 17 7 0 10 #fcfcfc #000000 #000000;
#X obj 759 456 s Siete;
#X obj 823 403 sel 8;
#X obj 823 432 bng 15 250 50 0 empty empty empty 17 7 0 10 #fcfcfc #000000 #000000;
#X obj 823 456 s Ocho;
#X obj 879 405 sel 9;
#X obj 879 434 bng 15 250 50 0 empty empty empty 17 7 0 10 #fcfcfc #000000 #000000;
#X obj 879 458 s Nueve;
#X obj 941 406 sel 10;
#X obj 941 435 bng 15 250 50 0 empty empty empty 17 7 0 10 #fcfcfc #000000 #000000;
#X obj 941 459 s Diez;
#X obj 1012 406 sel 11;
#X obj 1012 434 bng 15 250 50 0 empty empty empty 17 7 0 10 #fcfcfc #000000 #000000;
#X obj 1012 459 s Once;
#X obj 743 135 inlet;
#X obj 1096 435 bng 15 250 50 0 empty empty empty 17 7 0 10 #fcfcfc #000000 #000000;
#X obj 1095 459 s Doce;
#X obj 1096 406 sel 12;
#X obj 255 345 % 16;
#X obj 255 369 + 1;
#X floatatom 255 393 5 0 0 0 - - - 0;
#X obj 255 416 sel 1;
#X obj 255 440 bng 19 250 50 0 empty empty empty 0 -10 0 12 #fcfcfc #000000 #000000;
#X obj 255 464 s NewPattern;
#X obj 821 222 + 1;
#X connect 0 0 1 0;
#X connect 1 0 2 0;
#X connect 1 0 49 0;
#X connect 1 0 43 0;
#X connect 2 0 3 0;
#X connect 3 0 4 0;
#X connect 4 0 5 0;
#X connect 5 0 18 0;
#X connect 5 0 19 0;
#X connect 5 0 20 0;
#X connect 5 0 21 0;
#X connect 5 0 22 0;
#X connect 5 0 23 0;
#X connect 5 0 24 0;
#X connect 5 0 27 0;
#X connect 5 0 30 0;
#X connect 5 0 33 0;
#X connect 5 0 36 0;
#X connect 5 0 42 0;
#X connect 6 0 7 0;
#X connect 8 0 12 0;
#X connect 9 0 13 0;
#X connect 10 0 14 0;
#X connect 11 0 15 0;
#X connect 16 0 17 0;
#X connect 18 0 6 0;
#X connect 19 0 8 0;
#X connect 20 0 9 0;
#X connect 21 0 10 0;
#X connect 22 0 11 0;
#X connect 23 0 16 0;
#X connect 24 0 25 0;
#X connect 25 0 26 0;
#X connect 27 0 28 0;
#X connect 28 0 29 0;
#X connect 30 0 31 0;
#X connect 31 0 32 0;
#X connect 33 0 34 0;
#X connect 34 0 35 0;
#X connect 36 0 37 0;
#X connect 37 0 38 0;
#X connect 39 0 0 0;
#X connect 40 0 41 0;
#X connect 42 0 40 0;
#X connect 43 0 44 0;
#X connect 44 0 45 0;
#X connect 45 0 46 0;
#X connect 46 0 47 0;
#X connect 47 0 48 0;
#X connect 49 0 1 1;
