#N canvas 0 25 1920 941 12;
#X obj 634 390 r NewPattern;
#X obj 634 414 bng 19 250 50 0 empty empty empty 0 -10 0 12 #fcfcfc #000000 #000000;
#X obj 634 438 random 100;
#X floatatom 634 462 5 0 0 0 - - - 0;
#X obj 634 485 < 100;
#X obj 634 509 tgl 19 0 empty empty empty 0 -10 0 12 #fcfcfc #000000 #000000 0 1;
#X obj 595 569 spigot;
#X obj 595 619 bng 19 250 50 0 empty empty empty 0 -10 0 12 #fcfcfc #000000 #000000;
#X obj 531 509 receive Un;
#X obj 551 534 bng 19 250 50 0 empty empty empty 0 -10 0 12 #fcfcfc #000000 #000000;
#X obj 834 390 r NewPattern;
#X obj 834 414 bng 19 250 50 0 empty empty empty 0 -10 0 12 #fcfcfc #000000 #000000;
#X obj 834 438 random 100;
#X floatatom 834 462 5 0 0 0 - - - 0;
#X obj 834 485 < 100;
#X obj 834 509 tgl 19 0 empty empty empty 0 -10 0 12 #fcfcfc #000000 #000000 0 1;
#X obj 795 569 spigot;
#X obj 795 619 bng 19 250 50 0 empty empty empty 0 -10 0 12 #fcfcfc #000000 #000000;
#X obj 751 534 bng 19 250 50 0 empty empty empty 0 -10 0 12 #fcfcfc #000000 #000000;
#X obj 1034 390 r NewPattern;
#X obj 1034 414 bng 19 250 50 0 empty empty empty 0 -10 0 12 #fcfcfc #000000 #000000;
#X obj 1034 438 random 100;
#X floatatom 1034 462 5 0 0 0 - - - 0;
#X obj 1034 485 < 100;
#X obj 1034 509 tgl 19 0 empty empty empty 0 -10 0 12 #fcfcfc #000000 #000000 0 1;
#X obj 995 569 spigot;
#X obj 995 619 bng 19 250 50 0 empty empty empty 0 -10 0 12 #fcfcfc #000000 #000000;
#X obj 951 534 bng 19 250 50 0 empty empty empty 0 -10 0 12 #fcfcfc #000000 #000000;
#X obj 1213 390 r NewPattern;
#X obj 1213 414 bng 19 250 50 0 empty empty empty 0 -10 0 12 #fcfcfc #000000 #000000;
#X obj 1213 438 random 100;
#X floatatom 1213 462 5 0 0 0 - - - 0;
#X obj 1213 485 < 100;
#X obj 1213 509 tgl 19 0 empty empty empty 0 -10 0 12 #fcfcfc #000000 #000000 0 1;
#X obj 1174 569 spigot;
#X obj 1174 619 bng 19 250 50 0 empty empty empty 0 -10 0 12 #fcfcfc #000000 #000000;
#X obj 1130 534 bng 19 250 50 0 empty empty empty 0 -10 0 12 #fcfcfc #000000 #000000;
#X obj 1413 390 r NewPattern;
#X obj 1413 414 bng 19 250 50 0 empty empty empty 0 -10 0 12 #fcfcfc #000000 #000000;
#X obj 1413 438 random 100;
#X floatatom 1413 462 5 0 0 0 - - - 0;
#X obj 1413 485 < 100;
#X obj 1413 509 tgl 19 0 empty empty empty 0 -10 0 12 #fcfcfc #000000 #000000 0 1;
#X obj 1374 569 spigot;
#X obj 1374 619 bng 19 250 50 0 empty empty empty 0 -10 0 12 #fcfcfc #000000 #000000;
#X obj 1330 534 bng 19 250 50 0 empty empty empty 0 -10 0 12 #fcfcfc #000000 #000000;
#X obj 1613 390 r NewPattern;
#X obj 1613 414 bng 19 250 50 0 empty empty empty 0 -10 0 12 #fcfcfc #000000 #000000;
#X obj 1613 438 random 100;
#X floatatom 1613 462 5 0 0 0 - - - 0;
#X obj 1613 485 < 100;
#X obj 1613 509 tgl 19 0 empty empty empty 0 -10 0 12 #fcfcfc #000000 #000000 0 1;
#X obj 1574 569 spigot;
#X obj 1574 619 bng 19 250 50 0 empty empty empty 0 -10 0 12 #fcfcfc #000000 #000000;
#X obj 1530 534 bng 19 250 50 0 empty empty empty 0 -10 0 12 #fcfcfc #000000 #000000;
#X obj 1824 390 r NewPattern;
#X obj 1824 414 bng 19 250 50 0 empty empty empty 0 -10 0 12 #fcfcfc #000000 #000000;
#X obj 1824 438 random 100;
#X floatatom 1824 462 5 0 0 0 - - - 0;
#X obj 1824 485 < 100;
#X obj 1824 509 tgl 19 0 empty empty empty 0 -10 0 12 #fcfcfc #000000 #000000 0 1;
#X obj 1785 569 spigot;
#X obj 1785 619 bng 19 250 50 0 empty empty empty 0 -10 0 12 #fcfcfc #000000 #000000;
#X obj 1741 534 bng 19 250 50 0 empty empty empty 0 -10 0 12 #fcfcfc #000000 #000000;
#X obj 2024 390 r NewPattern;
#X obj 2024 414 bng 19 250 50 0 empty empty empty 0 -10 0 12 #fcfcfc #000000 #000000;
#X obj 2024 438 random 100;
#X floatatom 2024 462 5 0 0 0 - - - 0;
#X obj 2024 485 < 100;
#X obj 2024 509 tgl 19 0 empty empty empty 0 -10 0 12 #fcfcfc #000000 #000000 0 1;
#X obj 1985 569 spigot;
#X obj 1985 619 bng 19 250 50 0 empty empty empty 0 -10 0 12 #fcfcfc #000000 #000000;
#X obj 1941 534 bng 19 250 50 0 empty empty empty 0 -10 0 12 #fcfcfc #000000 #000000;
#X obj 2224 390 r NewPattern;
#X obj 2224 414 bng 19 250 50 0 empty empty empty 0 -10 0 12 #fcfcfc #000000 #000000;
#X obj 2224 438 random 100;
#X floatatom 2224 462 5 0 0 0 - - - 0;
#X obj 2224 485 < 100;
#X obj 2224 509 tgl 19 0 empty empty empty 0 -10 0 12 #fcfcfc #000000 #000000 0 1;
#X obj 2185 569 spigot;
#X obj 2185 619 bng 19 250 50 0 empty empty empty 0 -10 0 12 #fcfcfc #000000 #000000;
#X obj 2141 534 bng 19 250 50 0 empty empty empty 0 -10 0 12 #fcfcfc #000000 #000000;
#X obj 2403 390 r NewPattern;
#X obj 2403 414 bng 19 250 50 0 empty empty empty 0 -10 0 12 #fcfcfc #000000 #000000;
#X obj 2403 438 random 100;
#X floatatom 2403 462 5 0 0 0 - - - 0;
#X obj 2403 485 < 100;
#X obj 2403 509 tgl 19 0 empty empty empty 0 -10 0 12 #fcfcfc #000000 #000000 0 1;
#X obj 2364 569 spigot;
#X obj 2364 619 bng 19 250 50 0 empty empty empty 0 -10 0 12 #fcfcfc #000000 #000000;
#X obj 2320 534 bng 19 250 50 0 empty empty empty 0 -10 0 12 #fcfcfc #000000 #000000;
#X obj 2603 390 r NewPattern;
#X obj 2603 414 bng 19 250 50 0 empty empty empty 0 -10 0 12 #fcfcfc #000000 #000000;
#X obj 2603 438 random 100;
#X floatatom 2603 462 5 0 0 0 - - - 0;
#X obj 2603 485 < 100;
#X obj 2603 509 tgl 19 0 empty empty empty 0 -10 0 12 #fcfcfc #000000 #000000 0 1;
#X obj 2564 569 spigot;
#X obj 2564 619 bng 19 250 50 0 empty empty empty 0 -10 0 12 #fcfcfc #000000 #000000;
#X obj 2520 534 bng 19 250 50 0 empty empty empty 0 -10 0 12 #fcfcfc #000000 #000000;
#X obj 2803 390 r NewPattern;
#X obj 2803 414 bng 19 250 50 0 empty empty empty 0 -10 0 12 #fcfcfc #000000 #000000;
#X obj 2803 438 random 100;
#X floatatom 2803 462 5 0 0 0 - - - 0;
#X obj 2803 485 < 100;
#X obj 2803 509 tgl 19 0 empty empty empty 0 -10 0 12 #fcfcfc #000000 #000000 0 1;
#X obj 2764 569 spigot;
#X obj 2764 619 bng 19 250 50 0 empty empty empty 0 -10 0 12 #fcfcfc #000000 #000000;
#X obj 2720 534 bng 19 250 50 0 empty empty empty 0 -10 0 12 #fcfcfc #000000 #000000;
#X obj 1834 861 outlet;
#X obj 741 509 receive Dos;
#X obj 939 509 receive Tres;
#X obj 1100 510 receive Cuatro;
#X obj 1306 509 receive Cinco;
#X obj 1510 509 receive Seis;
#X obj 1721 509 receive Siete;
#X obj 1921 509 receive Ocho;
#X obj 2111 509 receive Nueve;
#X obj 2300 509 receive Diez;
#X obj 2499 509 receive Once;
#X obj 2700 509 receive Doce;
#X floatatom 689 462 5 0 100 0 - - - 0;
#X floatatom 889 462 5 0 100 0 - - - 0;
#X floatatom 1093 462 5 0 100 0 - - - 0;
#X floatatom 1269 462 5 0 100 0 - - - 0;
#X floatatom 1466 462 5 0 100 0 - - - 0;
#X floatatom 1667 462 5 0 100 0 - - - 0;
#X floatatom 1877 462 5 0 100 0 - - - 0;
#X floatatom 2076 462 5 0 100 0 - - - 0;
#X floatatom 2275 462 5 0 100 0 - - - 0;
#X floatatom 2459 462 5 0 100 0 - - - 0;
#X floatatom 2654 462 5 0 100 0 - - - 0;
#X floatatom 2851 462 5 0 100 0 - - - 0;
#X obj 1628 89 inlet;
#X obj 1628 136 unpack i i i i i i i i i i i i;
#X connect 0 0 1 0;
#X connect 1 0 2 0;
#X connect 2 0 3 0;
#X connect 3 0 4 0;
#X connect 4 0 5 0;
#X connect 5 0 6 1;
#X connect 6 0 7 0;
#X connect 7 0 109 0;
#X connect 8 0 9 0;
#X connect 9 0 6 0;
#X connect 10 0 11 0;
#X connect 11 0 12 0;
#X connect 12 0 13 0;
#X connect 13 0 14 0;
#X connect 14 0 15 0;
#X connect 15 0 16 1;
#X connect 16 0 17 0;
#X connect 17 0 109 0;
#X connect 18 0 16 0;
#X connect 19 0 20 0;
#X connect 20 0 21 0;
#X connect 21 0 22 0;
#X connect 22 0 23 0;
#X connect 23 0 24 0;
#X connect 24 0 25 1;
#X connect 25 0 26 0;
#X connect 26 0 109 0;
#X connect 27 0 25 0;
#X connect 28 0 29 0;
#X connect 29 0 30 0;
#X connect 30 0 31 0;
#X connect 31 0 32 0;
#X connect 32 0 33 0;
#X connect 33 0 34 1;
#X connect 34 0 35 0;
#X connect 35 0 109 0;
#X connect 36 0 34 0;
#X connect 37 0 38 0;
#X connect 38 0 39 0;
#X connect 39 0 40 0;
#X connect 40 0 41 0;
#X connect 41 0 42 0;
#X connect 42 0 43 1;
#X connect 43 0 44 0;
#X connect 44 0 109 0;
#X connect 45 0 43 0;
#X connect 46 0 47 0;
#X connect 47 0 48 0;
#X connect 48 0 49 0;
#X connect 49 0 50 0;
#X connect 50 0 51 0;
#X connect 51 0 52 1;
#X connect 52 0 53 0;
#X connect 53 0 109 0;
#X connect 54 0 52 0;
#X connect 55 0 56 0;
#X connect 56 0 57 0;
#X connect 57 0 58 0;
#X connect 58 0 59 0;
#X connect 59 0 60 0;
#X connect 60 0 61 1;
#X connect 61 0 62 0;
#X connect 62 0 109 0;
#X connect 63 0 61 0;
#X connect 64 0 65 0;
#X connect 65 0 66 0;
#X connect 66 0 67 0;
#X connect 67 0 68 0;
#X connect 68 0 69 0;
#X connect 69 0 70 1;
#X connect 70 0 71 0;
#X connect 71 0 109 0;
#X connect 72 0 70 0;
#X connect 73 0 74 0;
#X connect 74 0 75 0;
#X connect 75 0 76 0;
#X connect 76 0 77 0;
#X connect 77 0 78 0;
#X connect 78 0 79 1;
#X connect 79 0 80 0;
#X connect 80 0 109 0;
#X connect 81 0 79 0;
#X connect 82 0 83 0;
#X connect 83 0 84 0;
#X connect 84 0 85 0;
#X connect 85 0 86 0;
#X connect 86 0 87 0;
#X connect 87 0 88 1;
#X connect 88 0 89 0;
#X connect 89 0 109 0;
#X connect 90 0 88 0;
#X connect 91 0 92 0;
#X connect 92 0 93 0;
#X connect 93 0 94 0;
#X connect 94 0 95 0;
#X connect 95 0 96 0;
#X connect 96 0 97 1;
#X connect 97 0 98 0;
#X connect 98 0 109 0;
#X connect 99 0 97 0;
#X connect 100 0 101 0;
#X connect 101 0 102 0;
#X connect 102 0 103 0;
#X connect 103 0 104 0;
#X connect 104 0 105 0;
#X connect 105 0 106 1;
#X connect 106 0 107 0;
#X connect 107 0 109 0;
#X connect 108 0 106 0;
#X connect 110 0 18 0;
#X connect 111 0 27 0;
#X connect 112 0 36 0;
#X connect 113 0 45 0;
#X connect 114 0 54 0;
#X connect 115 0 63 0;
#X connect 116 0 72 0;
#X connect 117 0 81 0;
#X connect 118 0 90 0;
#X connect 119 0 99 0;
#X connect 120 0 108 0;
#X connect 121 0 4 1;
#X connect 122 0 14 1;
#X connect 123 0 23 1;
#X connect 124 0 32 1;
#X connect 125 0 41 1;
#X connect 126 0 50 1;
#X connect 127 0 59 1;
#X connect 128 0 68 1;
#X connect 129 0 77 1;
#X connect 130 0 86 1;
#X connect 131 0 95 1;
#X connect 132 0 104 1;
#X connect 133 0 134 0;
#X connect 134 0 121 0;
#X connect 134 1 122 0;
#X connect 134 2 123 0;
#X connect 134 3 124 0;
#X connect 134 4 125 0;
#X connect 134 5 126 0;
#X connect 134 6 127 0;
#X connect 134 7 128 0;
#X connect 134 8 129 0;
#X connect 134 9 130 0;
#X connect 134 10 131 0;
#X connect 134 11 132 0;
