#N canvas 996 151 1920 966 12;
#X obj 927 155 array define grainArray;
#X obj 927 61 soundfiler;
#X msg 927 39 read -resize olives.wav grainArray;
#X floatatom 927 83 20 0 0 0 - - - 0;
#X text 925 13 # Read File;
#X obj 236 451 dac~;
#X floatatom 566 86 5 0 0 0 - - - 0;
#X obj 566 109 s grain_dur;
#X obj 236 384 clone grain 16;
#X msg 236 265 next \$1;
#X obj 454 113 tgl 19 0 empty empty empty 0 -10 0 12 #fcfcfc #000000 #000000 0 1;
#X obj 236 408 *~ 0.5;
#X obj 236 75 phasor~;
#X obj 236 145 *~;
#X obj 927 110 send fileDuration;
#X obj 288 113 receive fileDuration;
#X obj 236 181 snapshot~;
#X floatatom 236 218 5 0 0 0 - - - 0;
#X obj 454 137 metro 125;
#X floatatom 237 39 5 0 0 0 - - - 0;
#X connect 1 0 3 0;
#X connect 2 0 1 0;
#X connect 3 0 14 0;
#X connect 6 0 7 0;
#X connect 8 0 11 0;
#X connect 9 0 8 0;
#X connect 10 0 18 0;
#X connect 11 0 5 0;
#X connect 11 0 5 1;
#X connect 12 0 13 0;
#X connect 13 0 16 0;
#X connect 15 0 13 1;
#X connect 16 0 17 0;
#X connect 17 0 9 0;
#X connect 18 0 16 0;
#X connect 19 0 12 0;
