#N canvas 570 122 1920 941 12;
#X obj 136 101 bng 19 250 50 0 empty empty empty 0 -10 0 12 #fcfcfc #000000 #000000;
#X obj 136 125 t b b b b;
#X obj 136 186 makenote 80 500;
#X obj 136 213 noteout 1;
#X msg 136 153 60;
#X msg 174 153 63;
#X msg 213 153 65;
#X connect 0 0 1 0;
#X connect 1 0 4 0;
#X connect 1 1 5 0;
#X connect 1 2 6 0;
#X connect 2 0 3 0;
#X connect 2 1 3 1;
#X connect 4 0 2 0;
#X connect 5 0 2 0;
#X connect 6 0 2 0;
