#N canvas 1164 25 756 820 12;
#X obj 37 67 netreceive 3001;
#X obj 59 114 unpack f f f f;
#X obj 52 193 i;
#X obj 89 193 i;
#X obj 129 193 i;
#X obj 169 193 i;
#X obj 65 342 noteout 1;
#X obj 29 165 / 100;
#X obj 135 163 / 100;
#X obj 207 157 / 100;
#X obj 51 218 + 60;
#X obj 130 217 + 80;
#X obj 168 217 + 83;
#X text 26 15 /// YOLO 1;
#X obj 222 71 print;
#X obj 190 257 nbx 5 17 -1e+37 1e+37 0 0 empty empty empty 0 -10 0 12 #fcfcfc #000000 #000000 0 256;
#X obj 212 211 nbx 5 17 -1e+37 1e+37 0 0 empty empty empty 0 -10 0 12 #fcfcfc #000000 #000000 0 256;
#X obj 52 280 makenote 80 500;
#X obj 81 157 / 100;
#X obj 371 146 + 50;
#X msg 449 126 60;
#X msg 450 170 70;
#X msg 400 41 30;
#X msg 485 82 50;
#X msg 462 49 40;
#X obj 239 345 unpack f f f f;
#X obj 255 486 i;
#X obj 232 458 / 100;
#X obj 280 537 nbx 5 17 -1e+37 1e+37 0 0 empty empty empty 0 -10 0 12 #fcfcfc #000000 #000000 0 256;
#X obj 390 625 noteout 2;
#X obj 254 511 + 30;
#X obj 22 368 bng 19 250 50 0 empty empty empty 0 -10 0 12 #fcfcfc #000000 #000000;
#X obj 33 411 i;
#X obj 73 411 + 1;
#X obj 148 460 nbx 5 17 -1e+37 1e+37 0 0 empty empty empty 0 -10 0 12 #fcfcfc #000000 #000000 0 256;
#X obj 231 430 spigot;
#X obj 279 393 == 1;
#X obj 365 553 makenote 200 2000;
#X obj 162 404 % 120;
#X connect 0 0 1 0;
#X connect 0 0 14 0;
#X connect 0 0 25 0;
#X connect 0 0 31 0;
#X connect 1 0 7 0;
#X connect 1 1 16 0;
#X connect 1 1 18 0;
#X connect 1 2 8 0;
#X connect 1 3 9 0;
#X connect 2 0 10 0;
#X connect 3 0 19 0;
#X connect 4 0 11 0;
#X connect 5 0 12 0;
#X connect 10 0 17 0;
#X connect 11 0 17 0;
#X connect 12 0 17 0;
#X connect 17 0 6 0;
#X connect 17 1 6 1;
#X connect 18 0 3 0;
#X connect 19 0 15 0;
#X connect 19 0 17 0;
#X connect 20 0 19 1;
#X connect 21 0 19 1;
#X connect 22 0 19 1;
#X connect 23 0 19 1;
#X connect 24 0 19 1;
#X connect 25 0 35 0;
#X connect 26 0 30 0;
#X connect 27 0 26 0;
#X connect 28 0 37 0;
#X connect 30 0 28 0;
#X connect 31 0 32 0;
#X connect 32 0 33 0;
#X connect 32 0 38 0;
#X connect 33 0 32 1;
#X connect 35 0 27 0;
#X connect 36 0 35 1;
#X connect 37 0 29 0;
#X connect 37 1 29 1;
#X connect 38 0 34 0;
