#N canvas 0 0 1936 992 10;
#X obj 672 9 cnv 15 848 463 empty empty empty 20 12 0 14 #ecf8ff #373737 0;
#X obj 8 940 cnv 15 824 341 empty empty empty 20 12 0 14 #dbfaf7 #373737 0;
#X obj 8 9 cnv 15 550 387 empty empty empty 20 12 0 14 #ffd6e3 #373737 0;
#X obj 8 408 cnv 15 550 202 empty empty empty 20 12 0 14 #e9f7cd #373737 0;
#X obj 8 629 cnv 15 824 286 empty empty empty 20 12 0 14 #eccfcf #373737 0;
#X obj -793 276 *~ 0.2;
#N canvas 0 52 1920 989 gates 0;
#X obj 18 237 soundfiler;
#N canvas 0 50 450 250 (subpatch) 0;
#X array waveformR 873594 float 4;
#X coords 0 1 873593 -1 200 140 1;
#X restore 1241 45 graph;
#X obj 420 175 *~;
#X obj 556 175 *~;
#N canvas 0 50 450 250 (subpatch) 0;
#X array waveformL 873594 float 4;
#X coords 0 1 873593 -1 200 140 1;
#X restore 1029 45 graph;
#X text 689 130 Volume;
#X obj 728 338 env~ 1024 612;
#X obj 756 372 - 100;
#X floatatom 756 424 5 0 0 0 - - - 0;
#X obj 816 575 bng 19 250 50 0 empty empty empty 0 -10 0 12 #fcfcfc #000000 #000000;
#X obj 816 637 outlet;
#X obj 499 19 inlet;
#X obj 756 505 moses -40;
#X obj 275 335 env~ 1024 612;
#X obj 303 369 - 100;
#X floatatom 303 421 5 0 0 0 - - - 0;
#X obj 363 572 bng 19 250 50 0 empty empty empty 0 -10 0 12 #fcfcfc #000000 #000000;
#X obj 363 634 outlet;
#X obj 303 502 moses -40;
#X obj 689 165 r volume_recording;
#X obj 30 67 openpanel;
#X obj 30 115 symbol;
#X obj 30 26 r loadfile;
#X msg 18 166 read -resize \$1 waveformL waveformR;
#X obj 420 103 tabplay~ waveformL;
#X obj 556 103 tabplay~ waveformR;
#X obj 939 447 r gateR;
#X obj 460 471 r gateL;
#X obj 885 396 s vmR;
#X obj 451 393 s vmL;
#X obj 876 481 * -1;
#X obj 454 517 * -1;
#X obj 398 231 throw~ channelL;
#X obj 556 231 throw~ channelR;
#X connect 2 0 32 0;
#X connect 3 0 33 0;
#X connect 6 0 7 0;
#X connect 7 0 8 0;
#X connect 7 0 28 0;
#X connect 8 0 12 0;
#X connect 9 0 10 0;
#X connect 11 0 24 0;
#X connect 11 0 25 0;
#X connect 12 1 9 0;
#X connect 13 0 14 0;
#X connect 14 0 15 0;
#X connect 14 0 29 0;
#X connect 15 0 18 0;
#X connect 16 0 17 0;
#X connect 18 1 16 0;
#X connect 19 0 3 1;
#X connect 19 0 2 1;
#X connect 20 0 21 0;
#X connect 21 0 23 0;
#X connect 22 0 20 0;
#X connect 23 0 0 0;
#X connect 24 0 2 0;
#X connect 24 0 13 0;
#X connect 25 0 3 0;
#X connect 25 0 6 0;
#X connect 26 0 30 0;
#X connect 27 0 31 0;
#X connect 30 0 12 1;
#X connect 31 0 18 1;
#X restore -884 0 pd gates;
#X obj 59 141 bng 19 250 50 0 empty empty empty 0 -10 0 12 #fcfcfc #000000 #000000;
#X msg -776 59 next \$1;
#X obj -415 293 hsl 162 19 0 1 0 0 empty empty empty -2 -10 0 12 #fcfcfc #000000 #000000 0 1;
#X obj -949 276 *~ 0.2;
#X msg -949 60 next \$1;
#X obj -776 149 clone FM_rs_2 24;
#X obj -949 149 clone FM_rs_2 24;
#X floatatom -260 362 4 0 0 0 - - - 0;
#X msg 100 141 stop;
#X obj -304 125 hsl 162 19 0 1 0 0 empty empty empty -2 -10 0 12 #fcfcfc #000000 #000000 0 1;
#X obj -343 149 s volume_recording;
#X obj 68 220 hsl 162 19 0 1 0 0 empty empty empty -2 -10 0 12 #fcfcfc #000000 #000000 0 1;
#X obj -490 80 * -1;
#X floatatom -448 129 5 0 0 0 - - - 0;
#X floatatom -446 184 5 0 0 0 - - - 0;
#X floatatom -448 262 5 0 0 0 - - - 0;
#X msg -283 25 0;
#X obj -260 69 + 0;
#X obj 474 56 bng 25 250 50 0 empty empty empty 17 7 0 10 #e4e4e4 #4d4d4d #373737;
#X obj 436 98 s loadfile;
#X obj 165 360 s gateR;
#X obj 56 360 s gateL;
#X obj 56 290 knob 50 0 100 0 0 empty empty #E4E4E4 #B7B7B7 #4D4D4D 1 0 0 0 1 270 0 0 0;
#X obj 165 290 knob 50 0 100 0 0 empty empty #E4E4E4 #B7B7B7 #4D4D4D 1 0 0 0 1 270 0 0 0;
#X obj -960 1151 dac~;
#X obj 59 577 s harmonicity;
#X obj 168 577 s mod_index;
#X obj 387 577 s decay;
#X obj 278 577 s mod_decay;
#X obj 59 471 knob 50 0 100 0 2 empty empty #E4E4E4 #B7B7B7 #4D4D4D 1 0 0 0 1 270 0 0 0;
#X obj 168 471 knob 50 0 100 0 4 empty empty #E4E4E4 #B7B7B7 #4D4D4D 1 0 0 0 1 270 0 0 0;
#X obj 278 471 knob 50 0 2000 0 500 empty empty #E4E4E4 #B7B7B7 #4D4D4D 1 0 0 0 1 270 0 0 0;
#X obj 387 471 knob 50 0 3000 0 500 empty empty #E4E4E4 #B7B7B7 #4D4D4D 1 0 0 0 1 270 0 0 0;
#X floatatom 120 471 5 0 0 0 - - - 12;
#X floatatom 229 471 5 0 0 0 - - - 12;
#X floatatom 339 471 5 0 0 0 - - - 12;
#X floatatom 449 471 5 0 0 0 - - - 12;
#X obj 59 539 i;
#X obj 168 539 i;
#X obj 278 539 i;
#X obj 387 539 i;
#X obj 469 269 vu 20 120 empty empty -1 -8 0 10 #e4e4e4 #373737 1 0;
#X floatatom 117 290 5 0 0 0 - - - 12;
#X floatatom 226 290 5 0 0 0 - - - 12;
#X obj 52 1085 scaleculator2;
#X floatatom 52 1177 5 0 0 0 - - - 12;
#X floatatom 52 996 5 0 0 0 - - - 12;
#X obj 328 1225 s scalenotesL;
#X obj 407 1085 scaleculator2;
#X obj 683 1225 s scalenotesR;
#X obj 482 1055 + 12;
#X obj 328 996 r indexscaleL;
#X obj 683 996 r indexscaleR;
#X obj 56 98 metro 10000;
#X obj 56 56 tgl 25 0 empty empty empty 17 7 0 10 #e4e4e4 #4d4d4d #373737 0 1;
#X obj -979 1092 *~ 1;
#X obj -925 1092 *~ 1;
#X obj -975 1204 writesf~ 2;
#X msg -715 1186 start;
#X msg -715 1225 stop;
#X floatatom 190 996 5 0 0 0 - - - 12;
#X obj 52 1225 s ntones;
#N canvas 802 175 784 813 notesL 0;
#X obj 50 47 inlet;
#X obj 50 337 outlet;
#X obj 230 152 r trans;
#X obj 50 133 s indexscaleL;
#X obj 50 168 r scalenotesL;
#X obj 50 93 random 0;
#X obj 122 47 r ntones;
#X connect 0 0 5 0;
#X connect 4 0 1 0;
#X connect 5 0 3 0;
#X connect 6 0 5 1;
#X restore -949 32 pd notesL;
#N canvas 802 175 784 813 notesR 0;
#X obj 432 239 inlet;
#X obj 432 529 outlet;
#X obj 612 344 r trans;
#X obj 432 285 random 7;
#X obj 432 325 s indexscaleR;
#X obj 432 360 r scalenotesR;
#X obj 500 256 r ntones;
#X connect 0 0 3 0;
#X connect 3 0 4 0;
#X connect 5 0 1 0;
#X connect 6 0 3 1;
#X restore -776 31 pd notesR;
#X obj -949 202 hv.reverb~;
#X obj -793 202 hv.reverb~;
#X floatatom 67 848 5 0 0 0 - - - 0;
#X msg 67 867 feedback \$1;
#X floatatom 154 848 5 0 0 1 dB - - 0;
#X msg 154 867 dry-gain \$1;
#X floatatom 242 848 5 0 0 1 dB - - 0;
#X msg 242 867 wet-gain \$1;
#X floatatom 334 848 10 0 0 1 Hz - - 0;
#X floatatom 422 848 10 0 0 1 Hz - - 0;
#X msg 334 867 lowcut \$1;
#X msg 422 867 highcut \$1;
#X obj 67 724 vsl 15 128 0 100 0 0 empty empty empty 0 -9 0 10 #fcfcfc #000000 #000000 0 1;
#X obj 154 724 vsl 15 128 0 100 0 0 empty empty empty 0 -9 0 10 #fcfcfc #000000 #000000 0 1;
#X obj 242 724 vsl 15 128 0 100 0 0 empty empty empty 0 -9 0 10 #fcfcfc #000000 #000000 0 1;
#X obj 334 724 vsl 15 128 0 25000 0 0 empty empty empty 0 -9 0 10 #fcfcfc #000000 #000000 0 1;
#X obj 422 724 vsl 15 128 0 25000 0 0 empty empty empty 0 -9 0 10 #fcfcfc #000000 #000000 0 1;
#X floatatom 507 848 10 0 0 1 Hz - - 0;
#X obj 507 724 vsl 15 128 0 25000 0 0 empty empty empty 0 -9 0 10 #fcfcfc #000000 #000000 0 1;
#X floatatom 602 848 5 0 0 0 - - - 0;
#X obj 602 724 vsl 15 128 0 100 0 0 empty empty empty 0 -9 0 10 #fcfcfc #000000 #000000 0 1;
#X msg 602 867 damp \$1;
#X msg 507 867 crossfreq \$1;
#X msg 67 691 90;
#X msg 242 690 80;
#X msg 507 690 3000;
#X msg 602 689 60;
#X msg 334 690 5;
#X msg 422 690 24000;
#X floatatom 672 848 5 0 0 0 - - - 0;
#X obj 672 724 vsl 15 128 0 2800 0 0 empty empty empty 0 -9 0 10 #fcfcfc #000000 #000000 0 1;
#X msg 672 689 0;
#X msg 672 867 predelay_ms \$1;
#X msg 107 62 30000;
#X msg 170 62 10000;
#X obj 334 647 loadbang;
#X text 48 629 /// REVERB;
#X text 48 413 /// FM8;
#X text 111 188 dry//wet;
#X text 56 256 gates;
#X obj 376 210 r vmL;
#X obj 472 210 r vmR;
#X text 48 14 /// FIELD RECORDING;
#X text 48 942 /// SCALE;
#X obj 293 330 * -1;
#X obj 345 330 * -1;
#X obj 407 269 vu 20 120 empty empty -1 -8 0 10 #e4e4e4 #373737 1 0;
#X obj -559 158 expr \$1 + \$2;
#X obj 275 203 knob 50 0 1 0 0 empty empty #E4E4E4 #B7B7B7 #4D4D4D 1 0 0 0 1 270 0 0 0;
#X floatatom -230 235 5 0 0 0 - - - 12;
#X obj -230 260 bng 25 250 50 0 empty empty empty 17 7 0 10 #e4e4e4 #4d4d4d #373737;
#X obj -448 152 * 0;
#X msg 154 690 80;
#X obj -873 979 catch~ channelR;
#X obj -1084 979 catch~ channelL;
#X obj -1095 483 throw~ channelL;
#X obj -980 483 throw~ channelR;
#X obj 376 161 knob 43 0 1 0 0 $panL empty #E4E4E4 #B7B7B7 #4D4D4D 1 0 0 0 1 270 0 0 0;
#X obj -1095 452 *~ $f1;
#X obj -1179 452 *~ (1-$f1);
#X obj -1127 415 expr 1-$f1;
#X obj 472 161 knob 43 0 1 0 0 $panL empty #E4E4E4 #B7B7B7 #4D4D4D 1 0 0 0 1 270 0 0 0;
#X obj -973 415 *~ $f1;
#X obj -927 452 *~ (1-$f1);
#X obj -866 415 expr 1-$f1;
#X text 376 137 pan L;
#X text 472 137 pan R;
#X text 258 183 MaxVolSynth;
#X text -1127 440 comment;
#X obj 787 29 granular-synth;
#X obj 753 389 throw~ channelL;
#X obj 959 389 throw~ channelR;
#X obj 789 344 *~;
#X obj 950 333 *~;
#X obj 857 273 knob 50 0 1 0 0 empty empty #E4E4E4 #B7B7B7 #4D4D4D 1 0 0 0 1 270 0 0 0;
#X obj 722 288 fx.chorus~;
#X obj 994 288 fx.chorus~;
#X msg 1350 32 \; r-on 1 \; wave 2 \; rnd-wave 0 \; freq 500 \; rnd-freq 10 \; dur 5000 \; rnd-dur 5000 \; del 0 \; rnd-del 1000 \; env 1 \; rnd-env 0 \; gliss 0 \; amp 0.5 \; filter 16000 \; rnd-filter 1 \; ran-arp 1 \; oct 5 \; offset 24 \; arp-range 4 \; note-1 0 \; note-2 2 \; note-3 3 \; note-4 7 \;, f 17;
#X obj 1361 -22 loadbang;
#X msg 163 972 60;
#X msg 241 960 34;
#X obj 442 960 loadbang;
#X obj 1867 355 play.file~;
#X obj 1999 199 random 100;
#X obj 1999 253 < 10;
#X obj 1999 295 sel 1;
#X obj 1985 32 BPM-engine;
#X obj 1985 159 bng 25 250 50 0 empty empty empty 17 7 0 10 #e4e4e4 #4d4d4d #373737;
#X obj 2024 408 a-stutter;
#X obj 1863 548 throw~ channelL;
#X obj 2412 408 tgl 25 0 empty empty empty 17 7 0 10 #e4e4e4 #4d4d4d #373737 0 1;
#X obj 2052 345 play.file~;
#X obj 2138 199 random 100;
#X obj 2138 295 sel 1;
#X obj 2124 159 bng 25 250 50 0 empty empty empty 17 7 0 10 #e4e4e4 #4d4d4d #373737;
#X obj 2426 288 sel 1;
#X obj 2412 152 bng 25 250 50 0 empty empty empty 17 7 0 10 #e4e4e4 #4d4d4d #373737;
#X obj 2426 321 random 2;
#X obj 2426 192 random 100;
#X obj 2040 548 throw~ channelR;
#X obj 2278 363 play.file~;
#X obj 2278 199 random 100;
#X obj 2278 295 sel 1;
#X obj 2264 159 bng 25 250 50 0 empty empty empty 17 7 0 10 #e4e4e4 #4d4d4d #373737;
#X obj 2278 253 < 30;
#X obj 2138 253 < 10;
#X obj -450 219 expr (1+$f1) * $f2;
#N canvas 0 22 450 300 sequencer 0;
#X obj 525 187 r bpm;
#X obj 525 239 int 1;
#X obj 607 239 + 1;
#X floatatom 525 274 5 0 0 0 - - - 12;
#X obj 525 332 + 1;
#X floatatom 525 358 5 0 0 0 - - - 12;
#X obj 525 439 sel 1;
#X obj 525 465 bng 25 250 50 0 empty empty empty 17 7 0 10 #e4e4e4 #4d4d4d #373737;
#X obj 599 465 bng 25 250 50 0 empty empty empty 17 7 0 10 #e4e4e4 #4d4d4d #373737;
#X obj 673 465 bng 25 250 50 0 empty empty empty 17 7 0 10 #e4e4e4 #4d4d4d #373737;
#X obj 820 465 bng 25 250 50 0 empty empty empty 17 7 0 10 #e4e4e4 #4d4d4d #373737;
#X obj 894 465 bng 25 250 50 0 empty empty empty 17 7 0 10 #e4e4e4 #4d4d4d #373737;
#X obj 968 465 bng 25 250 50 0 empty empty empty 17 7 0 10 #e4e4e4 #4d4d4d #373737;
#X obj 1042 465 bng 25 250 50 0 empty empty empty 17 7 0 10 #e4e4e4 #4d4d4d #373737;
#X obj 1116 465 bng 25 250 50 0 empty empty empty 17 7 0 10 #e4e4e4 #4d4d4d #373737;
#X obj 1190 465 bng 25 250 50 0 empty empty empty 17 7 0 10 #e4e4e4 #4d4d4d #373737;
#X obj 1264 465 bng 25 250 50 0 empty empty empty 17 7 0 10 #e4e4e4 #4d4d4d #373737;
#X obj 1338 465 bng 25 250 50 0 empty empty empty 17 7 0 10 #e4e4e4 #4d4d4d #373737;
#X obj 754 465 bng 25 250 50 0 empty empty empty 17 7 0 10 #e4e4e4 #4d4d4d #373737;
#X obj 599 439 sel 2;
#X obj 673 439 sel 3;
#X obj 820 439 sel 5;
#X obj 894 439 sel 6;
#X obj 968 439 sel 7;
#X obj 1042 439 sel 8;
#X obj 1116 439 sel 9;
#X obj 1190 439 sel 10;
#X obj 1264 439 sel 11;
#X obj 1338 439 sel 12;
#X obj 754 439 sel 4;
#X obj 525 497 s Un;
#X obj 599 497 s Dos;
#X obj 673 497 s Tres;
#X obj 754 497 s Cuatro;
#X obj 820 497 s Cinco;
#X obj 894 497 s Seis;
#X obj 968 497 s Siete;
#X obj 1042 497 s Ocho;
#X obj 1116 497 s Nueve;
#X obj 1190 497 s Diez;
#X obj 425 389 % 16;
#X obj 425 415 + 1;
#X obj 425 465 sel 1;
#X obj 425 493 bng 25 250 50 0 empty empty empty 17 7 0 10 #e4e4e4 #4d4d4d #373737;
#X obj 425 525 s NewPattern;
#X floatatom 425 438 5 0 0 0 - - - 12;
#X obj 377 187 loadbang;
#X obj 377 213 bng 25 250 50 0 empty empty empty 17 7 0 10 #e4e4e4 #4d4d4d #373737;
#X msg 377 245 -1;
#X obj 1264 497 s Unn;
#X obj 1338 497 s Doss;
#X obj 525 306 % 12;
#X connect 0 0 1 0;
#X connect 1 0 2 0;
#X connect 1 0 3 0;
#X connect 2 0 1 1;
#X connect 3 0 40 0;
#X connect 3 0 51 0;
#X connect 4 0 5 0;
#X connect 5 0 6 0;
#X connect 5 0 19 0;
#X connect 5 0 20 0;
#X connect 5 0 22 0;
#X connect 5 0 23 0;
#X connect 5 0 24 0;
#X connect 5 0 25 0;
#X connect 5 0 26 0;
#X connect 5 0 27 0;
#X connect 5 0 28 0;
#X connect 5 0 29 0;
#X connect 5 0 21 0;
#X connect 6 0 7 0;
#X connect 7 0 30 0;
#X connect 8 0 31 0;
#X connect 9 0 32 0;
#X connect 10 0 34 0;
#X connect 11 0 35 0;
#X connect 12 0 36 0;
#X connect 13 0 37 0;
#X connect 14 0 38 0;
#X connect 15 0 39 0;
#X connect 16 0 49 0;
#X connect 17 0 50 0;
#X connect 18 0 33 0;
#X connect 19 0 8 0;
#X connect 20 0 9 0;
#X connect 21 0 10 0;
#X connect 22 0 11 0;
#X connect 23 0 12 0;
#X connect 24 0 13 0;
#X connect 25 0 14 0;
#X connect 26 0 15 0;
#X connect 27 0 16 0;
#X connect 28 0 17 0;
#X connect 29 0 18 0;
#X connect 40 0 41 0;
#X connect 41 0 45 0;
#X connect 42 0 43 0;
#X connect 43 0 44 0;
#X connect 45 0 42 0;
#X connect 46 0 47 0;
#X connect 47 0 48 0;
#X connect 48 0 1 0;
#X connect 51 0 4 0;
#X restore 2595 93 pd sequencer;
#X obj 2270 57 s bpm;
#N canvas 0 22 450 300 kicks 0;
#X obj 346 177 r NewPattern;
#X obj 346 203 bng 25 250 50 0 empty empty empty 17 7 0 10 #e4e4e4 #4d4d4d #373737;
#X obj 346 235 random 100;
#X floatatom 346 261 5 0 0 0 - - - 12;
#X obj 294 344 tgl 25 0 empty empty empty 17 7 0 10 #e4e4e4 #4d4d4d #373737 0 1;
#X obj 212 344 bng 25 250 50 0 empty empty empty 17 7 0 10 #e4e4e4 #4d4d4d #373737;
#X obj 212 376 spigot;
#X obj 212 402 bng 25 250 50 0 empty empty empty 17 7 0 10 #e4e4e4 #4d4d4d #373737;
#X obj 212 306 receive Un;
#X obj 591 177 r NewPattern;
#X obj 591 203 bng 25 250 50 0 empty empty empty 17 7 0 10 #e4e4e4 #4d4d4d #373737;
#X obj 591 235 random 100;
#X floatatom 591 261 5 0 0 0 - - - 12;
#X obj 539 344 tgl 25 0 empty empty empty 17 7 0 10 #e4e4e4 #4d4d4d #373737 0 1;
#X obj 457 344 bng 25 250 50 0 empty empty empty 17 7 0 10 #e4e4e4 #4d4d4d #373737;
#X obj 457 376 spigot;
#X obj 457 402 bng 25 250 50 0 empty empty empty 17 7 0 10 #e4e4e4 #4d4d4d #373737;
#X obj 821 177 r NewPattern;
#X obj 821 203 bng 25 250 50 0 empty empty empty 17 7 0 10 #e4e4e4 #4d4d4d #373737;
#X obj 821 235 random 100;
#X floatatom 821 261 5 0 0 0 - - - 12;
#X obj 821 286 < 100;
#X obj 769 344 tgl 25 0 empty empty empty 17 7 0 10 #e4e4e4 #4d4d4d #373737 0 1;
#X obj 687 344 bng 25 250 50 0 empty empty empty 17 7 0 10 #e4e4e4 #4d4d4d #373737;
#X obj 687 376 spigot;
#X obj 687 402 bng 25 250 50 0 empty empty empty 17 7 0 10 #e4e4e4 #4d4d4d #373737;
#X obj 457 306 receive Dos;
#X obj 687 306 receive Tres;
#X obj 1050 177 r NewPattern;
#X obj 1050 203 bng 25 250 50 0 empty empty empty 17 7 0 10 #e4e4e4 #4d4d4d #373737;
#X obj 1050 235 random 100;
#X floatatom 1050 261 5 0 0 0 - - - 12;
#X obj 998 344 tgl 25 0 empty empty empty 17 7 0 10 #e4e4e4 #4d4d4d #373737 0 1;
#X obj 916 344 bng 25 250 50 0 empty empty empty 17 7 0 10 #e4e4e4 #4d4d4d #373737;
#X obj 916 376 spigot;
#X obj 916 402 bng 25 250 50 0 empty empty empty 17 7 0 10 #e4e4e4 #4d4d4d #373737;
#X obj 916 306 receive Cuatro;
#X obj 1391 183 r NewPattern;
#X obj 1391 209 bng 25 250 50 0 empty empty empty 17 7 0 10 #e4e4e4 #4d4d4d #373737;
#X obj 1391 241 random 100;
#X floatatom 1391 267 5 0 0 0 - - - 12;
#X obj 1339 350 tgl 25 0 empty empty empty 17 7 0 10 #e4e4e4 #4d4d4d #373737 0 1;
#X obj 1257 350 bng 25 250 50 0 empty empty empty 17 7 0 10 #e4e4e4 #4d4d4d #373737;
#X obj 1257 382 spigot;
#X obj 1257 408 bng 25 250 50 0 empty empty empty 17 7 0 10 #e4e4e4 #4d4d4d #373737;
#X obj 1636 183 r NewPattern;
#X obj 1636 209 bng 25 250 50 0 empty empty empty 17 7 0 10 #e4e4e4 #4d4d4d #373737;
#X obj 1636 241 random 100;
#X floatatom 1636 267 5 0 0 0 - - - 12;
#X obj 1636 292 < 100;
#X obj 1584 350 tgl 25 0 empty empty empty 17 7 0 10 #e4e4e4 #4d4d4d #373737 0 1;
#X obj 1502 350 bng 25 250 50 0 empty empty empty 17 7 0 10 #e4e4e4 #4d4d4d #373737;
#X obj 1502 382 spigot;
#X obj 1502 408 bng 25 250 50 0 empty empty empty 17 7 0 10 #e4e4e4 #4d4d4d #373737;
#X obj 1866 183 r NewPattern;
#X obj 1866 209 bng 25 250 50 0 empty empty empty 17 7 0 10 #e4e4e4 #4d4d4d #373737;
#X obj 1866 241 random 100;
#X floatatom 1866 267 5 0 0 0 - - - 12;
#X obj 1814 350 tgl 25 0 empty empty empty 17 7 0 10 #e4e4e4 #4d4d4d #373737 0 1;
#X obj 1732 350 bng 25 250 50 0 empty empty empty 17 7 0 10 #e4e4e4 #4d4d4d #373737;
#X obj 1732 382 spigot;
#X obj 1732 408 bng 25 250 50 0 empty empty empty 17 7 0 10 #e4e4e4 #4d4d4d #373737;
#X obj 2095 183 r NewPattern;
#X obj 2095 209 bng 25 250 50 0 empty empty empty 17 7 0 10 #e4e4e4 #4d4d4d #373737;
#X obj 2095 241 random 100;
#X floatatom 2095 267 5 0 0 0 - - - 12;
#X obj 2095 292 < 100;
#X obj 2043 350 tgl 25 0 empty empty empty 17 7 0 10 #e4e4e4 #4d4d4d #373737 0 1;
#X obj 1961 350 bng 25 250 50 0 empty empty empty 17 7 0 10 #e4e4e4 #4d4d4d #373737;
#X obj 1961 382 spigot;
#X obj 1961 408 bng 25 250 50 0 empty empty empty 17 7 0 10 #e4e4e4 #4d4d4d #373737;
#X obj 2436 189 r NewPattern;
#X obj 2436 215 bng 25 250 50 0 empty empty empty 17 7 0 10 #e4e4e4 #4d4d4d #373737;
#X obj 2436 247 random 100;
#X floatatom 2436 273 5 0 0 0 - - - 12;
#X obj 2384 356 tgl 25 0 empty empty empty 17 7 0 10 #e4e4e4 #4d4d4d #373737 0 1;
#X obj 2302 356 bng 25 250 50 0 empty empty empty 17 7 0 10 #e4e4e4 #4d4d4d #373737;
#X obj 2302 388 spigot;
#X obj 2302 414 bng 25 250 50 0 empty empty empty 17 7 0 10 #e4e4e4 #4d4d4d #373737;
#X obj 2681 189 r NewPattern;
#X obj 2681 215 bng 25 250 50 0 empty empty empty 17 7 0 10 #e4e4e4 #4d4d4d #373737;
#X obj 2681 247 random 100;
#X floatatom 2681 273 5 0 0 0 - - - 12;
#X obj 2681 298 < 100;
#X obj 2629 356 tgl 25 0 empty empty empty 17 7 0 10 #e4e4e4 #4d4d4d #373737 0 1;
#X obj 2547 356 bng 25 250 50 0 empty empty empty 17 7 0 10 #e4e4e4 #4d4d4d #373737;
#X obj 2547 388 spigot;
#X obj 2547 414 bng 25 250 50 0 empty empty empty 17 7 0 10 #e4e4e4 #4d4d4d #373737;
#X obj 2911 189 r NewPattern;
#X obj 2911 215 bng 25 250 50 0 empty empty empty 17 7 0 10 #e4e4e4 #4d4d4d #373737;
#X obj 2911 247 random 100;
#X floatatom 2911 273 5 0 0 0 - - - 12;
#X obj 2859 356 tgl 25 0 empty empty empty 17 7 0 10 #e4e4e4 #4d4d4d #373737 0 1;
#X obj 2777 356 bng 25 250 50 0 empty empty empty 17 7 0 10 #e4e4e4 #4d4d4d #373737;
#X obj 2777 388 spigot;
#X obj 2777 414 bng 25 250 50 0 empty empty empty 17 7 0 10 #e4e4e4 #4d4d4d #373737;
#X obj 3140 189 r NewPattern;
#X obj 3140 215 bng 25 250 50 0 empty empty empty 17 7 0 10 #e4e4e4 #4d4d4d #373737;
#X obj 3140 247 random 100;
#X floatatom 3140 273 5 0 0 0 - - - 12;
#X obj 3140 298 < 100;
#X obj 3088 356 tgl 25 0 empty empty empty 17 7 0 10 #e4e4e4 #4d4d4d #373737 0 1;
#X obj 3006 356 bng 25 250 50 0 empty empty empty 17 7 0 10 #e4e4e4 #4d4d4d #373737;
#X obj 3006 388 spigot;
#X obj 3006 414 bng 25 250 50 0 empty empty empty 17 7 0 10 #e4e4e4 #4d4d4d #373737;
#X obj 1257 312 receive Cinco;
#X obj 1502 312 receive Seis;
#X obj 1732 312 receive Siete;
#X obj 1961 312 receive Ocho;
#X obj 2302 318 receive Nueve;
#X obj 2547 318 receive Diez;
#X obj 2777 318 receive Unn;
#X obj 3006 318 receive Doss;
#X obj 1513 566 send kick;
#X obj 346 286 < 5;
#X obj 591 286 < 10;
#X obj 1050 286 < 5;
#X obj 1391 292 < 20;
#X obj 1866 292 < 10;
#X obj 2436 298 < 20;
#X obj 2911 298 < 10;
#X connect 0 0 1 0;
#X connect 1 0 2 0;
#X connect 2 0 3 0;
#X connect 3 0 114 0;
#X connect 4 0 6 1;
#X connect 5 0 6 0;
#X connect 6 0 7 0;
#X connect 7 0 113 0;
#X connect 8 0 5 0;
#X connect 9 0 10 0;
#X connect 10 0 11 0;
#X connect 11 0 12 0;
#X connect 12 0 115 0;
#X connect 13 0 15 1;
#X connect 14 0 15 0;
#X connect 15 0 16 0;
#X connect 16 0 113 0;
#X connect 17 0 18 0;
#X connect 18 0 19 0;
#X connect 19 0 20 0;
#X connect 20 0 21 0;
#X connect 21 0 22 0;
#X connect 22 0 24 1;
#X connect 23 0 24 0;
#X connect 24 0 25 0;
#X connect 25 0 113 0;
#X connect 26 0 14 0;
#X connect 27 0 23 0;
#X connect 28 0 29 0;
#X connect 29 0 30 0;
#X connect 30 0 31 0;
#X connect 31 0 116 0;
#X connect 32 0 34 1;
#X connect 33 0 34 0;
#X connect 34 0 35 0;
#X connect 35 0 113 0;
#X connect 36 0 33 0;
#X connect 37 0 38 0;
#X connect 38 0 39 0;
#X connect 39 0 40 0;
#X connect 40 0 117 0;
#X connect 41 0 43 1;
#X connect 42 0 43 0;
#X connect 43 0 44 0;
#X connect 44 0 113 0;
#X connect 45 0 46 0;
#X connect 46 0 47 0;
#X connect 47 0 48 0;
#X connect 48 0 49 0;
#X connect 49 0 50 0;
#X connect 50 0 52 1;
#X connect 51 0 52 0;
#X connect 52 0 53 0;
#X connect 53 0 113 0;
#X connect 54 0 55 0;
#X connect 55 0 56 0;
#X connect 56 0 57 0;
#X connect 57 0 118 0;
#X connect 58 0 60 1;
#X connect 59 0 60 0;
#X connect 60 0 61 0;
#X connect 61 0 113 0;
#X connect 62 0 63 0;
#X connect 63 0 64 0;
#X connect 64 0 65 0;
#X connect 65 0 66 0;
#X connect 66 0 67 0;
#X connect 67 0 69 1;
#X connect 68 0 69 0;
#X connect 69 0 70 0;
#X connect 70 0 113 0;
#X connect 71 0 72 0;
#X connect 72 0 73 0;
#X connect 73 0 74 0;
#X connect 74 0 119 0;
#X connect 75 0 77 1;
#X connect 76 0 77 0;
#X connect 77 0 78 0;
#X connect 78 0 113 0;
#X connect 79 0 80 0;
#X connect 80 0 81 0;
#X connect 81 0 82 0;
#X connect 82 0 83 0;
#X connect 83 0 84 0;
#X connect 84 0 86 1;
#X connect 85 0 86 0;
#X connect 86 0 87 0;
#X connect 87 0 113 0;
#X connect 88 0 89 0;
#X connect 89 0 90 0;
#X connect 90 0 91 0;
#X connect 91 0 120 0;
#X connect 92 0 94 1;
#X connect 93 0 94 0;
#X connect 94 0 95 0;
#X connect 95 0 113 0;
#X connect 96 0 97 0;
#X connect 97 0 98 0;
#X connect 98 0 99 0;
#X connect 99 0 100 0;
#X connect 100 0 101 0;
#X connect 101 0 103 1;
#X connect 102 0 103 0;
#X connect 103 0 104 0;
#X connect 104 0 113 0;
#X connect 105 0 42 0;
#X connect 106 0 51 0;
#X connect 107 0 59 0;
#X connect 108 0 68 0;
#X connect 109 0 76 0;
#X connect 110 0 85 0;
#X connect 111 0 93 0;
#X connect 112 0 102 0;
#X connect 114 0 4 0;
#X connect 115 0 13 0;
#X connect 116 0 32 0;
#X connect 117 0 41 0;
#X connect 118 0 58 0;
#X connect 119 0 75 0;
#X connect 120 0 92 0;
#X restore 2595 124 pd kicks;
#X obj 1867 321 r kick;
#N canvas 0 22 450 300 hats 0;
#X obj 1099 226 r NewPattern;
#X obj 1099 252 bng 25 250 50 0 empty empty empty 17 7 0 10 #e4e4e4 #4d4d4d #373737;
#X obj 1099 284 random 100;
#X floatatom 1099 310 5 0 0 0 - - - 12;
#X obj 1047 393 tgl 25 0 empty empty empty 17 7 0 10 #e4e4e4 #4d4d4d #373737 0 1;
#X obj 965 393 bng 25 250 50 0 empty empty empty 17 7 0 10 #e4e4e4 #4d4d4d #373737;
#X obj 965 425 spigot;
#X obj 965 451 bng 25 250 50 0 empty empty empty 17 7 0 10 #e4e4e4 #4d4d4d #373737;
#X obj 965 355 receive Un;
#X obj 1344 226 r NewPattern;
#X obj 1344 252 bng 25 250 50 0 empty empty empty 17 7 0 10 #e4e4e4 #4d4d4d #373737;
#X obj 1344 284 random 100;
#X floatatom 1344 310 5 0 0 0 - - - 12;
#X obj 1292 393 tgl 25 0 empty empty empty 17 7 0 10 #e4e4e4 #4d4d4d #373737 0 1;
#X obj 1210 393 bng 25 250 50 0 empty empty empty 17 7 0 10 #e4e4e4 #4d4d4d #373737;
#X obj 1210 425 spigot;
#X obj 1210 451 bng 25 250 50 0 empty empty empty 17 7 0 10 #e4e4e4 #4d4d4d #373737;
#X obj 1574 226 r NewPattern;
#X obj 1574 252 bng 25 250 50 0 empty empty empty 17 7 0 10 #e4e4e4 #4d4d4d #373737;
#X obj 1574 284 random 100;
#X floatatom 1574 310 5 0 0 0 - - - 12;
#X obj 1522 393 tgl 25 0 empty empty empty 17 7 0 10 #e4e4e4 #4d4d4d #373737 0 1;
#X obj 1440 393 bng 25 250 50 0 empty empty empty 17 7 0 10 #e4e4e4 #4d4d4d #373737;
#X obj 1440 425 spigot;
#X obj 1440 451 bng 25 250 50 0 empty empty empty 17 7 0 10 #e4e4e4 #4d4d4d #373737;
#X obj 1210 355 receive Dos;
#X obj 1440 355 receive Tres;
#X obj 1803 226 r NewPattern;
#X obj 1803 252 bng 25 250 50 0 empty empty empty 17 7 0 10 #e4e4e4 #4d4d4d #373737;
#X obj 1803 284 random 100;
#X floatatom 1803 310 5 0 0 0 - - - 12;
#X obj 1751 393 tgl 25 0 empty empty empty 17 7 0 10 #e4e4e4 #4d4d4d #373737 0 1;
#X obj 1669 393 bng 25 250 50 0 empty empty empty 17 7 0 10 #e4e4e4 #4d4d4d #373737;
#X obj 1669 425 spigot;
#X obj 1669 451 bng 25 250 50 0 empty empty empty 17 7 0 10 #e4e4e4 #4d4d4d #373737;
#X obj 1669 355 receive Cuatro;
#X obj 2144 232 r NewPattern;
#X obj 2144 258 bng 25 250 50 0 empty empty empty 17 7 0 10 #e4e4e4 #4d4d4d #373737;
#X obj 2144 290 random 100;
#X floatatom 2144 316 5 0 0 0 - - - 12;
#X obj 2092 399 tgl 25 0 empty empty empty 17 7 0 10 #e4e4e4 #4d4d4d #373737 0 1;
#X obj 2010 399 bng 25 250 50 0 empty empty empty 17 7 0 10 #e4e4e4 #4d4d4d #373737;
#X obj 2010 431 spigot;
#X obj 2010 457 bng 25 250 50 0 empty empty empty 17 7 0 10 #e4e4e4 #4d4d4d #373737;
#X obj 2389 232 r NewPattern;
#X obj 2389 258 bng 25 250 50 0 empty empty empty 17 7 0 10 #e4e4e4 #4d4d4d #373737;
#X obj 2389 290 random 100;
#X floatatom 2389 316 5 0 0 0 - - - 12;
#X obj 2337 399 tgl 25 0 empty empty empty 17 7 0 10 #e4e4e4 #4d4d4d #373737 0 1;
#X obj 2255 399 bng 25 250 50 0 empty empty empty 17 7 0 10 #e4e4e4 #4d4d4d #373737;
#X obj 2255 431 spigot;
#X obj 2255 457 bng 25 250 50 0 empty empty empty 17 7 0 10 #e4e4e4 #4d4d4d #373737;
#X obj 2619 232 r NewPattern;
#X obj 2619 258 bng 25 250 50 0 empty empty empty 17 7 0 10 #e4e4e4 #4d4d4d #373737;
#X obj 2619 290 random 100;
#X floatatom 2619 316 5 0 0 0 - - - 12;
#X obj 2567 399 tgl 25 0 empty empty empty 17 7 0 10 #e4e4e4 #4d4d4d #373737 0 1;
#X obj 2485 399 bng 25 250 50 0 empty empty empty 17 7 0 10 #e4e4e4 #4d4d4d #373737;
#X obj 2485 431 spigot;
#X obj 2485 457 bng 25 250 50 0 empty empty empty 17 7 0 10 #e4e4e4 #4d4d4d #373737;
#X obj 2848 232 r NewPattern;
#X obj 2848 258 bng 25 250 50 0 empty empty empty 17 7 0 10 #e4e4e4 #4d4d4d #373737;
#X obj 2848 290 random 100;
#X floatatom 2848 316 5 0 0 0 - - - 12;
#X obj 2796 399 tgl 25 0 empty empty empty 17 7 0 10 #e4e4e4 #4d4d4d #373737 0 1;
#X obj 2714 399 bng 25 250 50 0 empty empty empty 17 7 0 10 #e4e4e4 #4d4d4d #373737;
#X obj 2714 431 spigot;
#X obj 2714 457 bng 25 250 50 0 empty empty empty 17 7 0 10 #e4e4e4 #4d4d4d #373737;
#X obj 3189 238 r NewPattern;
#X obj 3189 264 bng 25 250 50 0 empty empty empty 17 7 0 10 #e4e4e4 #4d4d4d #373737;
#X obj 3189 296 random 100;
#X floatatom 3189 322 5 0 0 0 - - - 12;
#X obj 3137 405 tgl 25 0 empty empty empty 17 7 0 10 #e4e4e4 #4d4d4d #373737 0 1;
#X obj 3055 405 bng 25 250 50 0 empty empty empty 17 7 0 10 #e4e4e4 #4d4d4d #373737;
#X obj 3055 437 spigot;
#X obj 3055 463 bng 25 250 50 0 empty empty empty 17 7 0 10 #e4e4e4 #4d4d4d #373737;
#X obj 3434 238 r NewPattern;
#X obj 3434 264 bng 25 250 50 0 empty empty empty 17 7 0 10 #e4e4e4 #4d4d4d #373737;
#X obj 3434 296 random 100;
#X floatatom 3434 322 5 0 0 0 - - - 12;
#X obj 3382 405 tgl 25 0 empty empty empty 17 7 0 10 #e4e4e4 #4d4d4d #373737 0 1;
#X obj 3300 405 bng 25 250 50 0 empty empty empty 17 7 0 10 #e4e4e4 #4d4d4d #373737;
#X obj 3300 437 spigot;
#X obj 3300 463 bng 25 250 50 0 empty empty empty 17 7 0 10 #e4e4e4 #4d4d4d #373737;
#X obj 3664 238 r NewPattern;
#X obj 3664 264 bng 25 250 50 0 empty empty empty 17 7 0 10 #e4e4e4 #4d4d4d #373737;
#X obj 3664 296 random 100;
#X floatatom 3664 322 5 0 0 0 - - - 12;
#X obj 3612 405 tgl 25 0 empty empty empty 17 7 0 10 #e4e4e4 #4d4d4d #373737 0 1;
#X obj 3530 405 bng 25 250 50 0 empty empty empty 17 7 0 10 #e4e4e4 #4d4d4d #373737;
#X obj 3530 437 spigot;
#X obj 3530 463 bng 25 250 50 0 empty empty empty 17 7 0 10 #e4e4e4 #4d4d4d #373737;
#X obj 3893 238 r NewPattern;
#X obj 3893 264 bng 25 250 50 0 empty empty empty 17 7 0 10 #e4e4e4 #4d4d4d #373737;
#X obj 3893 296 random 100;
#X floatatom 3893 322 5 0 0 0 - - - 12;
#X obj 3841 405 tgl 25 0 empty empty empty 17 7 0 10 #e4e4e4 #4d4d4d #373737 0 1;
#X obj 3759 405 bng 25 250 50 0 empty empty empty 17 7 0 10 #e4e4e4 #4d4d4d #373737;
#X obj 3759 437 spigot;
#X obj 3759 463 bng 25 250 50 0 empty empty empty 17 7 0 10 #e4e4e4 #4d4d4d #373737;
#X obj 2010 361 receive Cinco;
#X obj 2255 361 receive Seis;
#X obj 2485 361 receive Siete;
#X obj 2714 361 receive Ocho;
#X obj 3055 367 receive Nueve;
#X obj 3300 367 receive Diez;
#X obj 3530 367 receive Unn;
#X obj 3759 367 receive Doss;
#X obj 2266 615 send hats;
#X obj 1099 335 < 80;
#X obj 1344 335 < 80;
#X obj 1574 335 < 80;
#X obj 1803 335 < 80;
#X obj 2144 341 < 80;
#X obj 2389 341 < 80;
#X obj 2619 341 < 80;
#X obj 2848 341 < 80;
#X obj 3189 347 < 80;
#X obj 3434 347 < 80;
#X obj 3664 347 < 80;
#X obj 3893 347 < 80;
#X connect 0 0 1 0;
#X connect 1 0 2 0;
#X connect 2 0 3 0;
#X connect 3 0 109 0;
#X connect 4 0 6 1;
#X connect 5 0 6 0;
#X connect 6 0 7 0;
#X connect 7 0 108 0;
#X connect 8 0 5 0;
#X connect 9 0 10 0;
#X connect 10 0 11 0;
#X connect 11 0 12 0;
#X connect 12 0 110 0;
#X connect 13 0 15 1;
#X connect 14 0 15 0;
#X connect 15 0 16 0;
#X connect 16 0 108 0;
#X connect 17 0 18 0;
#X connect 18 0 19 0;
#X connect 19 0 20 0;
#X connect 20 0 111 0;
#X connect 21 0 23 1;
#X connect 22 0 23 0;
#X connect 23 0 24 0;
#X connect 24 0 108 0;
#X connect 25 0 14 0;
#X connect 26 0 22 0;
#X connect 27 0 28 0;
#X connect 28 0 29 0;
#X connect 29 0 30 0;
#X connect 30 0 112 0;
#X connect 31 0 33 1;
#X connect 32 0 33 0;
#X connect 33 0 34 0;
#X connect 34 0 108 0;
#X connect 35 0 32 0;
#X connect 36 0 37 0;
#X connect 37 0 38 0;
#X connect 38 0 39 0;
#X connect 39 0 113 0;
#X connect 40 0 42 1;
#X connect 41 0 42 0;
#X connect 42 0 43 0;
#X connect 43 0 108 0;
#X connect 44 0 45 0;
#X connect 45 0 46 0;
#X connect 46 0 47 0;
#X connect 47 0 114 0;
#X connect 48 0 50 1;
#X connect 49 0 50 0;
#X connect 50 0 51 0;
#X connect 51 0 108 0;
#X connect 52 0 53 0;
#X connect 53 0 54 0;
#X connect 54 0 55 0;
#X connect 55 0 115 0;
#X connect 56 0 58 1;
#X connect 57 0 58 0;
#X connect 58 0 59 0;
#X connect 59 0 108 0;
#X connect 60 0 61 0;
#X connect 61 0 62 0;
#X connect 62 0 63 0;
#X connect 63 0 116 0;
#X connect 64 0 66 1;
#X connect 65 0 66 0;
#X connect 66 0 67 0;
#X connect 67 0 108 0;
#X connect 68 0 69 0;
#X connect 69 0 70 0;
#X connect 70 0 71 0;
#X connect 71 0 117 0;
#X connect 72 0 74 1;
#X connect 73 0 74 0;
#X connect 74 0 75 0;
#X connect 75 0 108 0;
#X connect 76 0 77 0;
#X connect 77 0 78 0;
#X connect 78 0 79 0;
#X connect 79 0 118 0;
#X connect 80 0 82 1;
#X connect 81 0 82 0;
#X connect 82 0 83 0;
#X connect 83 0 108 0;
#X connect 84 0 85 0;
#X connect 85 0 86 0;
#X connect 86 0 87 0;
#X connect 87 0 119 0;
#X connect 88 0 90 1;
#X connect 89 0 90 0;
#X connect 90 0 91 0;
#X connect 91 0 108 0;
#X connect 92 0 93 0;
#X connect 93 0 94 0;
#X connect 94 0 95 0;
#X connect 95 0 120 0;
#X connect 96 0 98 1;
#X connect 97 0 98 0;
#X connect 98 0 99 0;
#X connect 99 0 108 0;
#X connect 100 0 41 0;
#X connect 101 0 49 0;
#X connect 102 0 57 0;
#X connect 103 0 65 0;
#X connect 104 0 73 0;
#X connect 105 0 81 0;
#X connect 106 0 89 0;
#X connect 107 0 97 0;
#X connect 109 0 4 0;
#X connect 110 0 13 0;
#X connect 111 0 21 0;
#X connect 112 0 31 0;
#X connect 113 0 40 0;
#X connect 114 0 48 0;
#X connect 115 0 56 0;
#X connect 116 0 64 0;
#X connect 117 0 72 0;
#X connect 118 0 80 0;
#X connect 119 0 88 0;
#X connect 120 0 96 0;
#X restore 2595 152 pd hats;
#X obj 2052 309 r hats;
#N canvas 0 22 450 300 snare 0;
#X obj 1744 619 r NewPattern;
#X obj 1744 645 bng 25 250 50 0 empty empty empty 17 7 0 10 #e4e4e4 #4d4d4d #373737;
#X obj 1744 677 random 100;
#X floatatom 1744 703 5 0 0 0 - - - 12;
#X obj 1692 786 tgl 25 0 empty empty empty 17 7 0 10 #e4e4e4 #4d4d4d #373737 0 1;
#X obj 1610 786 bng 25 250 50 0 empty empty empty 17 7 0 10 #e4e4e4 #4d4d4d #373737;
#X obj 1610 818 spigot;
#X obj 1610 844 bng 25 250 50 0 empty empty empty 17 7 0 10 #e4e4e4 #4d4d4d #373737;
#X obj 1610 748 receive Un;
#X obj 1989 619 r NewPattern;
#X obj 1989 645 bng 25 250 50 0 empty empty empty 17 7 0 10 #e4e4e4 #4d4d4d #373737;
#X obj 1989 677 random 100;
#X floatatom 1989 703 5 0 0 0 - - - 12;
#X obj 1937 786 tgl 25 0 empty empty empty 17 7 0 10 #e4e4e4 #4d4d4d #373737 0 1;
#X obj 1855 786 bng 25 250 50 0 empty empty empty 17 7 0 10 #e4e4e4 #4d4d4d #373737;
#X obj 1855 818 spigot;
#X obj 1855 844 bng 25 250 50 0 empty empty empty 17 7 0 10 #e4e4e4 #4d4d4d #373737;
#X obj 2219 619 r NewPattern;
#X obj 2219 645 bng 25 250 50 0 empty empty empty 17 7 0 10 #e4e4e4 #4d4d4d #373737;
#X obj 2219 677 random 100;
#X floatatom 2219 703 5 0 0 0 - - - 12;
#X obj 2219 728 < 100;
#X obj 2167 786 tgl 25 0 empty empty empty 17 7 0 10 #e4e4e4 #4d4d4d #373737 0 1;
#X obj 2085 786 bng 25 250 50 0 empty empty empty 17 7 0 10 #e4e4e4 #4d4d4d #373737;
#X obj 2085 818 spigot;
#X obj 2085 844 bng 25 250 50 0 empty empty empty 17 7 0 10 #e4e4e4 #4d4d4d #373737;
#X obj 1855 748 receive Dos;
#X obj 2085 748 receive Tres;
#X obj 2448 619 r NewPattern;
#X obj 2448 645 bng 25 250 50 0 empty empty empty 17 7 0 10 #e4e4e4 #4d4d4d #373737;
#X obj 2448 677 random 100;
#X floatatom 2448 703 5 0 0 0 - - - 12;
#X obj 2396 786 tgl 25 0 empty empty empty 17 7 0 10 #e4e4e4 #4d4d4d #373737 0 1;
#X obj 2314 786 bng 25 250 50 0 empty empty empty 17 7 0 10 #e4e4e4 #4d4d4d #373737;
#X obj 2314 818 spigot;
#X obj 2314 844 bng 25 250 50 0 empty empty empty 17 7 0 10 #e4e4e4 #4d4d4d #373737;
#X obj 2314 748 receive Cuatro;
#X obj 2789 625 r NewPattern;
#X obj 2789 651 bng 25 250 50 0 empty empty empty 17 7 0 10 #e4e4e4 #4d4d4d #373737;
#X obj 2789 683 random 100;
#X floatatom 2789 709 5 0 0 0 - - - 12;
#X obj 2737 792 tgl 25 0 empty empty empty 17 7 0 10 #e4e4e4 #4d4d4d #373737 0 1;
#X obj 2655 792 bng 25 250 50 0 empty empty empty 17 7 0 10 #e4e4e4 #4d4d4d #373737;
#X obj 2655 824 spigot;
#X obj 2655 850 bng 25 250 50 0 empty empty empty 17 7 0 10 #e4e4e4 #4d4d4d #373737;
#X obj 3034 625 r NewPattern;
#X obj 3034 651 bng 25 250 50 0 empty empty empty 17 7 0 10 #e4e4e4 #4d4d4d #373737;
#X obj 3034 683 random 100;
#X floatatom 3034 709 5 0 0 0 - - - 12;
#X obj 3034 734 < 100;
#X obj 2982 792 tgl 25 0 empty empty empty 17 7 0 10 #e4e4e4 #4d4d4d #373737 0 1;
#X obj 2900 792 bng 25 250 50 0 empty empty empty 17 7 0 10 #e4e4e4 #4d4d4d #373737;
#X obj 2900 824 spigot;
#X obj 2900 850 bng 25 250 50 0 empty empty empty 17 7 0 10 #e4e4e4 #4d4d4d #373737;
#X obj 3264 625 r NewPattern;
#X obj 3264 651 bng 25 250 50 0 empty empty empty 17 7 0 10 #e4e4e4 #4d4d4d #373737;
#X obj 3264 683 random 100;
#X floatatom 3264 709 5 0 0 0 - - - 12;
#X obj 3212 792 tgl 25 0 empty empty empty 17 7 0 10 #e4e4e4 #4d4d4d #373737 0 1;
#X obj 3130 792 bng 25 250 50 0 empty empty empty 17 7 0 10 #e4e4e4 #4d4d4d #373737;
#X obj 3130 824 spigot;
#X obj 3130 850 bng 25 250 50 0 empty empty empty 17 7 0 10 #e4e4e4 #4d4d4d #373737;
#X obj 3493 625 r NewPattern;
#X obj 3493 651 bng 25 250 50 0 empty empty empty 17 7 0 10 #e4e4e4 #4d4d4d #373737;
#X obj 3493 683 random 100;
#X floatatom 3493 709 5 0 0 0 - - - 12;
#X obj 3493 734 < 100;
#X obj 3441 792 tgl 25 0 empty empty empty 17 7 0 10 #e4e4e4 #4d4d4d #373737 0 1;
#X obj 3359 792 bng 25 250 50 0 empty empty empty 17 7 0 10 #e4e4e4 #4d4d4d #373737;
#X obj 3359 824 spigot;
#X obj 3359 850 bng 25 250 50 0 empty empty empty 17 7 0 10 #e4e4e4 #4d4d4d #373737;
#X obj 3834 631 r NewPattern;
#X obj 3834 657 bng 25 250 50 0 empty empty empty 17 7 0 10 #e4e4e4 #4d4d4d #373737;
#X obj 3834 689 random 100;
#X floatatom 3834 715 5 0 0 0 - - - 12;
#X obj 3782 798 tgl 25 0 empty empty empty 17 7 0 10 #e4e4e4 #4d4d4d #373737 0 1;
#X obj 3700 798 bng 25 250 50 0 empty empty empty 17 7 0 10 #e4e4e4 #4d4d4d #373737;
#X obj 3700 830 spigot;
#X obj 3700 856 bng 25 250 50 0 empty empty empty 17 7 0 10 #e4e4e4 #4d4d4d #373737;
#X obj 4079 631 r NewPattern;
#X obj 4079 657 bng 25 250 50 0 empty empty empty 17 7 0 10 #e4e4e4 #4d4d4d #373737;
#X obj 4079 689 random 100;
#X floatatom 4079 715 5 0 0 0 - - - 12;
#X obj 4079 740 < 100;
#X obj 4027 798 tgl 25 0 empty empty empty 17 7 0 10 #e4e4e4 #4d4d4d #373737 0 1;
#X obj 3945 798 bng 25 250 50 0 empty empty empty 17 7 0 10 #e4e4e4 #4d4d4d #373737;
#X obj 3945 830 spigot;
#X obj 3945 856 bng 25 250 50 0 empty empty empty 17 7 0 10 #e4e4e4 #4d4d4d #373737;
#X obj 4309 631 r NewPattern;
#X obj 4309 657 bng 25 250 50 0 empty empty empty 17 7 0 10 #e4e4e4 #4d4d4d #373737;
#X obj 4309 689 random 100;
#X floatatom 4309 715 5 0 0 0 - - - 12;
#X obj 4257 798 tgl 25 0 empty empty empty 17 7 0 10 #e4e4e4 #4d4d4d #373737 0 1;
#X obj 4175 798 bng 25 250 50 0 empty empty empty 17 7 0 10 #e4e4e4 #4d4d4d #373737;
#X obj 4175 830 spigot;
#X obj 4175 856 bng 25 250 50 0 empty empty empty 17 7 0 10 #e4e4e4 #4d4d4d #373737;
#X obj 4538 631 r NewPattern;
#X obj 4538 657 bng 25 250 50 0 empty empty empty 17 7 0 10 #e4e4e4 #4d4d4d #373737;
#X obj 4538 689 random 100;
#X floatatom 4538 715 5 0 0 0 - - - 12;
#X obj 4538 740 < 100;
#X obj 4486 798 tgl 25 0 empty empty empty 17 7 0 10 #e4e4e4 #4d4d4d #373737 0 1;
#X obj 4404 798 bng 25 250 50 0 empty empty empty 17 7 0 10 #e4e4e4 #4d4d4d #373737;
#X obj 4404 830 spigot;
#X obj 4404 856 bng 25 250 50 0 empty empty empty 17 7 0 10 #e4e4e4 #4d4d4d #373737;
#X obj 2655 754 receive Cinco;
#X obj 2900 754 receive Seis;
#X obj 3130 754 receive Siete;
#X obj 3359 754 receive Ocho;
#X obj 3700 760 receive Nueve;
#X obj 3945 760 receive Diez;
#X obj 4175 760 receive Unn;
#X obj 4404 760 receive Doss;
#X obj 1744 728 < 5;
#X obj 1989 728 < 10;
#X obj 2448 728 < 5;
#X obj 2789 734 < 20;
#X obj 3264 734 < 10;
#X obj 3834 740 < 20;
#X obj 4309 740 < 10;
#X obj 2911 1008 send snare;
#X connect 0 0 1 0;
#X connect 1 0 2 0;
#X connect 2 0 3 0;
#X connect 3 0 113 0;
#X connect 4 0 6 1;
#X connect 5 0 6 0;
#X connect 6 0 7 0;
#X connect 7 0 120 0;
#X connect 8 0 5 0;
#X connect 9 0 10 0;
#X connect 10 0 11 0;
#X connect 11 0 12 0;
#X connect 12 0 114 0;
#X connect 13 0 15 1;
#X connect 14 0 15 0;
#X connect 15 0 16 0;
#X connect 16 0 120 0;
#X connect 17 0 18 0;
#X connect 18 0 19 0;
#X connect 19 0 20 0;
#X connect 20 0 21 0;
#X connect 21 0 22 0;
#X connect 22 0 24 1;
#X connect 23 0 24 0;
#X connect 24 0 25 0;
#X connect 25 0 120 0;
#X connect 26 0 14 0;
#X connect 27 0 23 0;
#X connect 28 0 29 0;
#X connect 29 0 30 0;
#X connect 30 0 31 0;
#X connect 31 0 115 0;
#X connect 32 0 34 1;
#X connect 33 0 34 0;
#X connect 34 0 35 0;
#X connect 35 0 120 0;
#X connect 36 0 33 0;
#X connect 37 0 38 0;
#X connect 38 0 39 0;
#X connect 39 0 40 0;
#X connect 40 0 116 0;
#X connect 41 0 43 1;
#X connect 42 0 43 0;
#X connect 43 0 44 0;
#X connect 44 0 120 0;
#X connect 45 0 46 0;
#X connect 46 0 47 0;
#X connect 47 0 48 0;
#X connect 48 0 49 0;
#X connect 49 0 50 0;
#X connect 50 0 52 1;
#X connect 51 0 52 0;
#X connect 52 0 53 0;
#X connect 53 0 120 0;
#X connect 54 0 55 0;
#X connect 55 0 56 0;
#X connect 56 0 57 0;
#X connect 57 0 117 0;
#X connect 58 0 60 1;
#X connect 59 0 60 0;
#X connect 60 0 61 0;
#X connect 61 0 120 0;
#X connect 62 0 63 0;
#X connect 63 0 64 0;
#X connect 64 0 65 0;
#X connect 65 0 66 0;
#X connect 66 0 67 0;
#X connect 67 0 69 1;
#X connect 68 0 69 0;
#X connect 69 0 70 0;
#X connect 70 0 120 0;
#X connect 71 0 72 0;
#X connect 72 0 73 0;
#X connect 73 0 74 0;
#X connect 74 0 118 0;
#X connect 75 0 77 1;
#X connect 76 0 77 0;
#X connect 77 0 78 0;
#X connect 78 0 120 0;
#X connect 79 0 80 0;
#X connect 80 0 81 0;
#X connect 81 0 82 0;
#X connect 82 0 83 0;
#X connect 83 0 84 0;
#X connect 84 0 86 1;
#X connect 85 0 86 0;
#X connect 86 0 87 0;
#X connect 87 0 120 0;
#X connect 88 0 89 0;
#X connect 89 0 90 0;
#X connect 90 0 91 0;
#X connect 91 0 119 0;
#X connect 92 0 94 1;
#X connect 93 0 94 0;
#X connect 94 0 95 0;
#X connect 95 0 120 0;
#X connect 96 0 97 0;
#X connect 97 0 98 0;
#X connect 98 0 99 0;
#X connect 99 0 100 0;
#X connect 100 0 101 0;
#X connect 101 0 103 1;
#X connect 102 0 103 0;
#X connect 103 0 104 0;
#X connect 104 0 120 0;
#X connect 105 0 42 0;
#X connect 106 0 51 0;
#X connect 107 0 59 0;
#X connect 108 0 68 0;
#X connect 109 0 76 0;
#X connect 110 0 85 0;
#X connect 111 0 93 0;
#X connect 112 0 102 0;
#X connect 113 0 4 0;
#X connect 114 0 13 0;
#X connect 115 0 32 0;
#X connect 116 0 41 0;
#X connect 117 0 58 0;
#X connect 118 0 75 0;
#X connect 119 0 92 0;
#X restore 2595 184 pd snare;
#X obj 2278 331 r snare;
#X obj 2426 246 < 20;
#X obj 2021 484 *~;
#X obj 2102 448 knob 50 0 1 0 0 empty empty #E4E4E4 #B7B7B7 #4D4D4D 1 0 0 0 1 270 0 0 0;
#X msg -715 1125 open undos.wav;
#X connect 5 0 133 0;
#X connect 5 0 134 0;
#X connect 6 0 69 0;
#X connect 6 1 70 0;
#X connect 7 0 6 0;
#X connect 8 0 12 0;
#X connect 9 0 5 1;
#X connect 9 0 10 1;
#X connect 9 0 14 0;
#X connect 10 0 130 0;
#X connect 10 0 129 0;
#X connect 11 0 13 0;
#X connect 12 0 72 0;
#X connect 13 0 71 0;
#X connect 15 0 6 0;
#X connect 16 0 17 0;
#X connect 18 0 19 0;
#X connect 18 0 24 0;
#X connect 18 0 122 1;
#X connect 19 0 20 0;
#X connect 20 0 122 0;
#X connect 21 0 177 0;
#X connect 22 0 9 0;
#X connect 23 0 24 1;
#X connect 24 0 16 0;
#X connect 25 0 26 0;
#X connect 29 0 28 0;
#X connect 29 0 49 0;
#X connect 29 0 115 0;
#X connect 30 0 27 0;
#X connect 30 0 50 0;
#X connect 30 0 116 0;
#X connect 36 0 44 0;
#X connect 37 0 45 0;
#X connect 38 0 46 0;
#X connect 39 0 43 0;
#X connect 39 0 47 0;
#X connect 44 0 40 0;
#X connect 44 0 32 0;
#X connect 45 0 41 0;
#X connect 45 0 33 0;
#X connect 46 0 42 0;
#X connect 46 0 35 0;
#X connect 47 0 34 0;
#X connect 51 0 52 0;
#X connect 51 1 54 0;
#X connect 52 0 68 0;
#X connect 53 0 51 0;
#X connect 53 0 57 0;
#X connect 55 1 56 0;
#X connect 57 0 55 0;
#X connect 58 0 51 2;
#X connect 59 0 55 2;
#X connect 60 0 7 0;
#X connect 61 0 60 0;
#X connect 62 0 31 0;
#X connect 62 0 64 0;
#X connect 63 0 31 1;
#X connect 63 0 64 1;
#X connect 65 0 64 0;
#X connect 66 0 64 0;
#X connect 67 0 51 1;
#X connect 67 0 55 1;
#X connect 69 0 11 0;
#X connect 70 0 8 0;
#X connect 71 0 10 0;
#X connect 72 0 5 0;
#X connect 73 0 74 0;
#X connect 74 0 72 1;
#X connect 74 0 71 1;
#X connect 75 0 76 0;
#X connect 76 0 72 1;
#X connect 76 0 71 1;
#X connect 77 0 78 0;
#X connect 78 0 72 1;
#X connect 78 0 71 1;
#X connect 79 0 81 0;
#X connect 80 0 82 0;
#X connect 81 0 72 1;
#X connect 81 0 71 1;
#X connect 82 0 72 1;
#X connect 82 0 71 1;
#X connect 83 0 73 0;
#X connect 84 0 75 0;
#X connect 85 0 77 0;
#X connect 86 0 79 0;
#X connect 87 0 80 0;
#X connect 88 0 93 0;
#X connect 89 0 88 0;
#X connect 90 0 92 0;
#X connect 91 0 90 0;
#X connect 92 0 72 1;
#X connect 92 0 71 1;
#X connect 93 0 72 1;
#X connect 93 0 71 1;
#X connect 94 0 83 0;
#X connect 95 0 85 0;
#X connect 96 0 89 0;
#X connect 97 0 91 0;
#X connect 98 0 86 0;
#X connect 99 0 87 0;
#X connect 100 0 103 0;
#X connect 101 0 100 0;
#X connect 102 0 101 0;
#X connect 103 0 72 1;
#X connect 103 0 92 0;
#X connect 103 0 71 1;
#X connect 104 0 60 1;
#X connect 105 0 60 1;
#X connect 106 0 94 0;
#X connect 106 0 123 0;
#X connect 106 0 95 0;
#X connect 106 0 98 0;
#X connect 106 0 99 0;
#X connect 106 0 96 0;
#X connect 106 0 97 0;
#X connect 106 0 102 0;
#X connect 111 0 117 0;
#X connect 112 0 48 0;
#X connect 115 0 117 1;
#X connect 116 0 48 1;
#X connect 119 0 120 0;
#X connect 120 0 121 0;
#X connect 120 0 177 1;
#X connect 121 0 177 0;
#X connect 122 0 21 0;
#X connect 123 0 84 0;
#X connect 124 0 63 0;
#X connect 125 0 62 0;
#X connect 128 0 129 1;
#X connect 128 0 131 0;
#X connect 129 0 127 0;
#X connect 130 0 126 0;
#X connect 131 0 130 1;
#X connect 132 0 133 1;
#X connect 132 0 135 0;
#X connect 133 0 127 0;
#X connect 134 0 126 0;
#X connect 135 0 134 1;
#X connect 140 0 146 0;
#X connect 140 1 147 0;
#X connect 143 0 141 0;
#X connect 143 0 159 0;
#X connect 144 0 142 0;
#X connect 144 0 159 0;
#X connect 145 0 143 1;
#X connect 145 0 144 1;
#X connect 146 0 143 0;
#X connect 147 0 144 0;
#X connect 149 0 148 0;
#X connect 150 0 53 0;
#X connect 151 0 67 0;
#X connect 152 0 150 0;
#X connect 152 0 151 0;
#X connect 153 0 159 0;
#X connect 154 0 155 0;
#X connect 157 3 158 0;
#X connect 157 3 165 0;
#X connect 157 3 174 0;
#X connect 157 3 179 0;
#X connect 158 0 154 0;
#X connect 159 0 187 0;
#X connect 161 0 159 2;
#X connect 162 0 159 0;
#X connect 163 0 176 0;
#X connect 165 0 163 0;
#X connect 166 0 168 0;
#X connect 167 0 169 0;
#X connect 168 0 161 0;
#X connect 169 0 186 0;
#X connect 171 0 159 0;
#X connect 172 0 175 0;
#X connect 174 0 172 0;
#X connect 175 0 173 0;
#X connect 176 0 164 0;
#X connect 177 0 22 0;
#X connect 181 0 153 0;
#X connect 183 0 162 0;
#X connect 185 0 171 0;
#X connect 186 0 166 0;
#X connect 187 0 160 0;
#X connect 187 0 170 0;
#X connect 188 0 187 1;
#X connect 189 0 64 0;
