#N canvas 91 103 1920 989 12;
#X obj 280 300 dac~;
#X obj 419 188 *~ 0.2;
#X obj 277 234 vstplugin~;
#X msg 13 215 open -e ValhallaSupermassive;
#N canvas 0 52 1920 989 gates 0;
#X obj 18 105 soundfiler;
#N canvas 0 50 450 250 (subpatch) 0;
#X array birdsR 7.52513e+06 float 2;
#X coords 0 1 7.52513e+06 -1 200 140 1;
#X restore 1241 45 graph;
#X obj 420 175 *~;
#X obj 216 67 tgl 19 0 empty empty empty 0 -10 0 12 #fcfcfc #000000 #000000 0 1;
#X obj 481 267 dac~;
#X obj 216 106 metro 50;
#X obj 420 103 tabplay~ birdsR;
#X obj 556 103 tabplay~ birdsL;
#X obj 556 175 *~;
#N canvas 0 50 450 250 (subpatch) 0;
#X array birdsL 7.52513e+06 float 2;
#X coords 0 1 7.52513e+06 -1 200 140 1;
#X restore 1029 45 graph;
#X text 689 130 Volume;
#X obj 18 5 loadbang;
#X obj 1074 393 vu 19 200 empty empty -1 -10 0 12 #404040 #000000 1 0;
#X obj 728 338 env~ 1024 612;
#X obj 746 257;
#X obj 756 372 - 100;
#X floatatom 756 424 5 0 0 0 - - - 0;
#X obj 816 575 bng 19 250 50 0 empty empty empty 0 -10 0 12 #fcfcfc #000000 #000000;
#X obj 816 637 outlet;
#X obj 499 19 inlet;
#X msg 18 34 read -resize olives.wav birdsR birdsL;
#X obj 756 505 moses -40;
#X obj 621 390 vu 19 200 empty empty -1 -10 0 12 #404040 #000000 1 0;
#X obj 275 335 env~ 1024 612;
#X obj 303 369 - 100;
#X floatatom 303 421 5 0 0 0 - - - 0;
#X obj 363 572 bng 19 250 50 0 empty empty empty 0 -10 0 12 #fcfcfc #000000 #000000;
#X obj 363 634 outlet;
#X obj 303 502 moses -40;
#X obj 674 152 r volume_recording;
#X connect 2 0 4 0;
#X connect 3 0 5 0;
#X connect 6 0 2 0;
#X connect 6 0 23 0;
#X connect 7 0 8 0;
#X connect 7 0 13 0;
#X connect 8 0 4 1;
#X connect 11 0 20 0;
#X connect 13 0 15 0;
#X connect 15 0 12 0;
#X connect 15 0 16 0;
#X connect 16 0 21 0;
#X connect 17 0 18 0;
#X connect 19 0 6 0;
#X connect 19 0 7 0;
#X connect 20 0 0 0;
#X connect 21 1 17 0;
#X connect 23 0 24 0;
#X connect 24 0 22 0;
#X connect 24 0 25 0;
#X connect 25 0 28 0;
#X connect 26 0 27 0;
#X connect 28 1 26 0;
#X connect 29 0 8 1;
#X connect 29 0 2 1;
#X restore 311 37 pd gates;
#X obj 311 6 bng 19 250 50 0 empty empty empty 0 -10 0 12 #fcfcfc #000000 #000000;
#X msg 419 96 next \$1;
#X floatatom 458 117 5 0 0 0 - - - 0;
#X floatatom 517 116 5 0 0 0 - - - 0;
#X floatatom 583 118 5 0 0 0 - - - 0;
#N canvas 802 175 784 813 notes 0;
#X msg 139 47 \; notes 0 90 92 93 95 97 99 100 102;
#X obj 50 47 inlet;
#X obj 50 128 tabread notes;
#X floatatom 50 202 5 0 0 0 - - - 0;
#X obj 140 87 table notes;
#X obj 50 225 outlet;
#X obj 50 93 random 8;
#X obj 50 163 + 0;
#X obj 139 167 r trans;
#X obj 139 13 loadbang;
#X connect 1 0 6 0;
#X connect 2 0 7 0;
#X connect 3 0 5 0;
#X connect 6 0 2 0;
#X connect 7 0 3 0;
#X connect 8 0 7 1;
#X connect 9 0 0 0;
#X restore 419 68 pd notes;
#X obj 579 169 hsl 162 19 0 0.05 0 0 empty empty empty -2 -10 0 12 #fcfcfc #000000 #000000 0 1;
#X obj 246 189 *~ 0.2;
#X msg 246 97 next \$1;
#X floatatom 266 119 5 0 0 0 - - - 0;
#X floatatom 312 120 5 0 0 0 - - - 0;
#X floatatom 358 119 5 0 0 0 - - - 0;
#X obj 419 149 clone FM_rs_2 24;
#X obj 221 150 clone FM_rs_2 24;
#N canvas 802 175 784 813 notes_2 0;
#X obj 50 47 inlet;
#X floatatom 50 206 5 0 0 0 - - - 0;
#X obj 50 229 outlet;
#X obj 140 87 table notes_2;
#X obj 50 128 tabread notes_2;
#X obj 50 176 - 12;
#X msg 315 80 \; notes_2 0 90 93 97 100 104;
#X obj 50 93 random 6;
#X obj 50 152 + 0;
#X obj 219 133 r trans;
#X obj 314 33 loadbang;
#X connect 0 0 7 0;
#X connect 1 0 2 0;
#X connect 4 0 8 0;
#X connect 5 0 1 0;
#X connect 7 0 4 0;
#X connect 8 0 5 0;
#X connect 9 0 8 1;
#X connect 10 0 6 0;
#X restore 246 69 pd notes_2;
#X floatatom 576 202 4 0 0 0 - - - 16;
#X obj 1163 105 s trans;
#X msg 1160 69 0;
#X msg 1198 69 1;
#X msg 1242 71 3;
#X msg 355 6 stop;
#X obj 855 162 hsl 162 19 0 1 0 0 empty empty empty -2 -10 0 12 #fcfcfc #000000 #000000 0 1;
#X obj 852 186 s volume_recording;
#X obj 802 96 hsl 162 19 0 1 0 0 empty empty empty -2 -10 0 12 #fcfcfc #000000 #000000 0 1;
#X obj 704 108 * -1;
#X floatatom 752 137 5 0 0 0 - - - 0;
#X floatatom 752 184 5 0 0 0 - - - 0;
#X floatatom 752 235 5 0 0 0 - - - 0;
#X obj 752 160 * 0.05;
#X obj 752 211 expr 0.05 + $f1;
#X obj 821 126 + 0.13;
#X msg 913 123 0;
#X obj 13 150 loadbang;
#X connect 1 0 2 1;
#X connect 2 0 0 0;
#X connect 2 1 0 1;
#X connect 3 0 2 0;
#X connect 4 0 19 0;
#X connect 4 1 10 0;
#X connect 5 0 4 0;
#X connect 6 0 17 0;
#X connect 7 0 17 1;
#X connect 8 0 17 2;
#X connect 9 0 17 3;
#X connect 9 0 17 4;
#X connect 10 0 6 0;
#X connect 11 0 1 1;
#X connect 11 0 12 1;
#X connect 11 0 20 0;
#X connect 12 0 2 0;
#X connect 13 0 18 0;
#X connect 14 0 18 1;
#X connect 15 0 18 2;
#X connect 16 0 18 3;
#X connect 16 0 18 4;
#X connect 17 0 1 0;
#X connect 18 0 12 0;
#X connect 19 0 13 0;
#X connect 22 0 21 0;
#X connect 23 0 21 0;
#X connect 24 0 21 0;
#X connect 25 0 4 0;
#X connect 26 0 27 0;
#X connect 28 0 29 0;
#X connect 28 0 35 0;
#X connect 29 0 30 0;
#X connect 30 0 33 0;
#X connect 31 0 34 0;
#X connect 32 0 11 0;
#X connect 33 0 31 0;
#X connect 34 0 32 0;
#X connect 35 0 26 0;
#X connect 36 0 35 1;
#X connect 37 0 3 0;
