#N canvas 268 131 2400 1236 12;
#X obj 142 453 tabread4~ grainArray;
#X obj 142 413 line~;
#X msg 142 376 \$1 \, \$2 \$3;
#X obj 142 340 pack f f f;
#X obj 142 257 t f f;
#X floatatom 142 175 5 0 0 0 - - - 0;
#X obj 180 312 +;
#X floatatom 236 262 5 0 0 0 - - - 0;
#X obj 236 286 * 44.1;
#X text 279 257 duration in ms;
#X text 186 174 start point (samples);
#X obj 387 219 loadbang;
#X obj 387 243 samplerate~;
#X obj 387 267 / 1000;
#X obj 236 235 r grain_dur;
#X obj 142 56 inlet;
#X obj 142 516 outlet~;
#X text 119 13 GRAIN SUBPATCH;
#X obj 142 114 t f b, f 109;
#X obj 902 149 t b b;
#X obj 902 173 del 50;
#X msg 969 173 1;
#X msg 902 203 0;
#X obj 902 243 pack f 50;
#X obj 902 267 line~;
#X obj 142 477 *~, f 109;
#X obj 979 78 r grain_dur;
#X obj 979 102 -50;
#X connect 0 0 25 0;
#X connect 1 0 0 0;
#X connect 2 0 1 0;
#X connect 3 0 2 0;
#X connect 4 0 3 0;
#X connect 4 1 6 0;
#X connect 5 0 4 0;
#X connect 6 0 3 1;
#X connect 7 0 8 0;
#X connect 7 0 3 2;
#X connect 8 0 6 1;
#X connect 11 0 12 0;
#X connect 12 0 13 0;
#X connect 13 0 8 1;
#X connect 14 0 7 0;
#X connect 15 0 18 0;
#X connect 18 0 5 0;
#X connect 18 1 19 0;
#X connect 19 0 20 0;
#X connect 19 1 21 0;
#X connect 20 0 22 0;
#X connect 21 0 23 0;
#X connect 22 0 23 0;
#X connect 23 0 24 0;
#X connect 24 0 25 1;
#X connect 25 0 16 0;
#X connect 26 0 27 0;
#X connect 27 0 20 1;
