#N canvas 930 112 1920 966 12;
#X obj 521 295 metro;
#X obj 521 90 bng 19 250 50 0 empty empty empty 0 -10 0 12 #fcfcfc #000000 #000000;
#X msg 482 90 0;
#X obj 577 157 60000;
#X obj 623 159 nbx 5 17 -1e+37 1e+37 0 0 empty empty empty 0 -10 0 12 #fcfcfc #000000 #000000 0 256;
#X obj 577 203 /;
#X obj 554 114 t b b b;
#X obj 609 251 nbx 5 17 -1e+37 1e+37 0 0 empty empty empty 0 -10 0 12 #fcfcfc #000000 #000000 0 256;
#X obj 577 250 i;
#X obj 609 278 nbx 5 17 -1e+37 1e+37 0 0 empty empty empty 0 -10 0 12 #fcfcfc #000000 #000000 0 256;
#X obj 521 326 i;
#X obj 521 365 nbx 5 17 -1e+37 1e+37 0 0 empty empty empty 0 -10 0 12 #fcfcfc #000000 #000000 0 256;
#X obj 610 326 + 1;
#X msg 567 295 0;
#X obj 521 389 % 4;
#X obj 521 418 nbx 5 17 -1e+37 1e+37 0 0 empty empty empty 0 -10 0 12 #fcfcfc #000000 #000000 0 256;
#X connect 0 0 10 0;
#X connect 1 0 0 0;
#X connect 1 0 6 0;
#X connect 2 0 0 0;
#X connect 3 0 5 0;
#X connect 4 0 5 1;
#X connect 5 0 7 0;
#X connect 5 0 8 0;
#X connect 6 1 3 0;
#X connect 6 2 4 0;
#X connect 8 0 9 0;
#X connect 9 0 0 1;
#X connect 10 0 11 0;
#X connect 10 0 12 0;
#X connect 11 0 14 0;
#X connect 12 0 10 1;
#X connect 13 0 10 1;
#X connect 14 0 15 0;
