#N canvas 0 25 1920 941 12;
#X obj 189 368 makenote 80 500;
#X obj 189 395 noteout 1;
#X msg 87 307 60;
#X msg 125 307 63;
#X msg 165 307 65;
#X msg 198 307 55;
#X msg 236 307 58;
#X msg 275 307 60;
#X obj 82 38 bng 19 250 50 0 empty empty empty 0 -10 0 12 #fcfcfc #000000 #000000;
#X obj 82 75 metro 500;
#X obj 81 131 i;
#X obj 115 131 + 1;
#X obj 36 92 bng 19 250 50 0 empty empty empty 0 -10 0 12 #fcfcfc #000000 #000000;
#X obj 119 156 % 8;
#X obj 124 184 nbx 1 17 -1e+37 1e+37 0 0 empty empty empty 0 -10 0 12 #fcfcfc #000000 #000000 0 256;
#X obj 86 213 select 0 1 2 3 4 5 6 7;
#X msg 110 38 0;
#X msg 145 38 500;
#X text 26 15 /// S E Q U E N C I A D O R 2;
#X msg 316 307 70;
#X msg 358 307 68;
#X msg 185 78 250;
#X text 369 135 Este secuenciador sirve para mandar crear una melodía con tu DAW favorito;
#X connect 0 0 1 0;
#X connect 0 1 1 1;
#X connect 2 0 0 0;
#X connect 3 0 0 0;
#X connect 4 0 0 0;
#X connect 5 0 0 0;
#X connect 6 0 0 0;
#X connect 7 0 0 0;
#X connect 8 0 9 0;
#X connect 9 0 10 0;
#X connect 9 0 12 0;
#X connect 10 0 11 0;
#X connect 10 0 13 0;
#X connect 11 0 10 1;
#X connect 13 0 14 0;
#X connect 13 0 15 0;
#X connect 15 0 2 0;
#X connect 15 1 4 0;
#X connect 15 2 20 0;
#X connect 15 3 3 0;
#X connect 15 4 7 0;
#X connect 15 6 19 0;
#X connect 15 7 5 0;
#X connect 15 8 6 0;
#X connect 16 0 9 0;
#X connect 17 0 9 1;
#X connect 19 0 0 0;
#X connect 20 0 0 0;
#X connect 21 0 9 1;
