#N canvas 1079 483 734 530 12;
#X obj 41 90 secuensia;
#X obj 402 164 secuensiado;
#X obj 402 64 tgl 19 0 empty empty empty 0 -10 0 12 #fcfcfc #000000 #000000 0 1;
#X obj 402 92 metro 500;
#X obj 402 115 bng 19 250 50 0 empty empty empty 0 -10 0 12 #fcfcfc #000000 #000000;
#X obj 41 132 bng 19 250 50 0 empty empty empty 0 -10 0 12 #fcfcfc #000000 #000000;
#X msg 107 25 10 10 100 10 20 100 30 100 25 100 10 100;
#X obj 39 231 dac~;
#X obj 39 167 kick808;
#X connect 0 0 5 0;
#X connect 2 0 3 0;
#X connect 3 0 4 0;
#X connect 4 0 1 0;
#X connect 5 0 8 0;
#X connect 6 0 0 0;
#X connect 8 0 7 0;
#X connect 8 0 7 1;
