#N canvas 0 25 1920 941 12;
#X obj 41 90 secuensia;
#X obj 1058 647 secuensiado;
#X obj 1058 547 tgl 19 0 empty empty empty 0 -10 0 12 #fcfcfc #000000 #000000 0 1;
#X obj 1058 598 bng 19 250 50 0 empty empty empty 0 -10 0 12 #fcfcfc #000000 #000000;
#X obj 41 132 bng 19 250 50 0 empty empty empty 0 -10 0 12 #fcfcfc #000000 #000000;
#X msg 34 26 10 10 100 10 20 100 30 100 25 100 10 100;
#X obj 39 167 kick808;
#X obj 1696 875 bng 19 250 50 0 empty empty empty 0 -10 0 12 #fcfcfc #000000 #000000;
#X obj 1695 923 openpanel;
#X obj 1695 1010 soundfiler;
#N canvas 0 22 450 278 (subpatch) 0;
#X array snaree 10192 float 2;
#X coords 0 1 10192 -1 200 140 1;
#X restore 1614 407 graph;
#X msg 1696 970 read -resize \$1 snaree;
#X obj 158 140 bng 19 250 50 0 empty empty empty 0 -10 0 12 #fcfcfc #000000 #000000;
#X obj 158 164 tabplay~ snaree;
#X obj 50 225 *~ 0.5;
#X obj 50 274 dac~;
#X obj 182 104 secuensia;
#X msg 224 56 0 100 10 20 50 100 0 25 0 100 0;
#X obj 1459 680 bng 19 250 50 0 empty empty empty 0 -10 0 12 #fcfcfc #000000 #000000;
#X obj 1459 704 openpanel;
#X obj 1459 793 soundfiler;
#X msg 1459 752 read -resize \$1 hihat;
#N canvas 0 22 450 278 (subpatch) 0;
#X array hihat 11398 float 2;
#X coords 0 1 11398 -1 200 140 1;
#X restore 1617 216 graph;
#X obj 411 103 secuensia;
#X obj 373 128 bng 19 250 50 0 empty empty empty 0 -10 0 12 #fcfcfc #000000 #000000;
#X msg 567 81 50 50 50 50 50 50 50 50 50 50 50 50;
#X obj 342 160 tabplay~ hihat;
#X msg 1205 577 12;
#X obj 1673 668 bng 19 250 50 0 empty empty empty 0 -10 0 12 #fcfcfc #000000 #000000;
#X obj 1673 692 openpanel;
#X obj 1673 781 soundfiler;
#X msg 1673 740 read -resize \$1 percu;
#N canvas 0 22 450 278 (subpatch) 0;
#X array percu 7376 float 2;
#X coords 0 1 7376 -1 200 140 1;
#X restore 1616 36 graph;
#X obj 580 126 secuensia;
#X obj 542 151 bng 19 250 50 0 empty empty empty 0 -10 0 12 #fcfcfc #000000 #000000;
#X obj 511 183 tabplay~ percu;
#X msg 762 110 20 30 40 80 30 10 10 20 30 40 80 10;
#X obj 626 451 scaleculator2;
#X floatatom 781 405 5 0 0 0 - - - 0;
#X floatatom 838 634 5 0 0 0 - - - 0;
#X floatatom 632 399 5 0 0 0 - - - 0;
#X obj 880 400 random 7;
#X msg 233 465 next \$1;
#X obj 869 275 secuensia;
#X obj 873 328 bng 19 250 50 0 empty empty empty 0 -10 0 12 #fcfcfc #000000 #000000;
#X msg 943 216 20 30 40 80 30 10 10 20 30 40 80 10;
#X obj 1058 575 metro 150;
#X obj 263 728 s harmonicity;
#X floatatom 272 687 5 0 0 0 - - - 0;
#X obj 210 565 clone FM_rs_2 26;
#X obj 417 735 s mod_index;
#X floatatom 416 678 5 0 0 0 - - - 0;
#X floatatom 659 684 5 0 0 0 - - - 0;
#X obj 522 728 s mod_decay;
#X obj 643 742 s decay;
#X floatatom 529 690 5 0 0 0 - - - 0;
#X connect 0 0 4 0;
#X connect 2 0 46 0;
#X connect 3 0 1 0;
#X connect 4 0 6 0;
#X connect 5 0 0 0;
#X connect 6 0 14 0;
#X connect 7 0 8 0;
#X connect 8 0 11 0;
#X connect 11 0 9 0;
#X connect 12 0 13 0;
#X connect 13 0 14 0;
#X connect 14 0 15 0;
#X connect 14 0 15 1;
#X connect 16 0 12 0;
#X connect 17 0 16 0;
#X connect 18 0 19 0;
#X connect 19 0 21 0;
#X connect 21 0 20 0;
#X connect 23 0 24 0;
#X connect 24 0 26 0;
#X connect 25 0 23 0;
#X connect 26 0 14 0;
#X connect 27 0 1 1;
#X connect 28 0 29 0;
#X connect 29 0 31 0;
#X connect 31 0 30 0;
#X connect 33 0 34 0;
#X connect 34 0 35 0;
#X connect 35 0 14 0;
#X connect 36 0 33 0;
#X connect 37 0 41 1;
#X connect 37 1 39 0;
#X connect 38 0 37 1;
#X connect 39 0 42 0;
#X connect 40 0 37 0;
#X connect 41 0 37 2;
#X connect 42 0 49 0;
#X connect 43 0 44 0;
#X connect 44 0 41 0;
#X connect 45 0 43 0;
#X connect 46 0 3 0;
#X connect 48 0 47 0;
#X connect 49 0 14 0;
#X connect 51 0 50 0;
#X connect 52 0 54 0;
#X connect 55 0 53 0;
