#N canvas 798 240 1920 989 12;
#N canvas -49 50 1920 989 gate_kick 0;
#X obj 18 105 soundfiler;
#N canvas 0 50 450 250 (subpatch) 0;
#X array birdsR 2.26625e+06 float 2;
#X coords 0 1 2.26625e+06 -1 200 140 1;
#X restore 1241 45 graph;
#X obj 420 175 *~;
#X obj 216 67 tgl 19 0 empty empty empty 0 -10 0 12 #fcfcfc #000000 #000000 0 1;
#X obj 481 267 dac~;
#X obj 216 106 metro 50;
#X obj 420 103 tabplay~ birdsR;
#X obj 556 103 tabplay~ birdsL;
#X obj 556 175 *~;
#N canvas 0 50 450 250 (subpatch) 0;
#X array birdsL 2.26625e+06 float 2;
#X coords 0 1 2.26625e+06 -1 200 140 1;
#X restore 1029 45 graph;
#X text 689 130 Volume;
#X obj 18 5 loadbang;
#X obj 1074 393 vu 19 200 empty empty -1 -10 0 12 #404040 #000000 1 0;
#X obj 728 338 env~ 1024 612;
#X obj 746 257;
#X obj 756 372 - 100;
#X floatatom 756 424 5 0 0 0 - - - 0;
#X obj 816 575 bng 19 250 50 0 empty empty empty 0 -10 0 12 #fcfcfc #000000 #000000;
#X obj 816 637 outlet;
#X obj 499 19 inlet;
#X obj 621 390 vu 19 200 empty empty -1 -10 0 12 #404040 #000000 1 0;
#X obj 275 335 env~ 1024 612;
#X obj 303 369 - 100;
#X floatatom 303 421 5 0 0 0 - - - 0;
#X obj 363 572 bng 19 250 50 0 empty empty empty 0 -10 0 12 #fcfcfc #000000 #000000;
#X obj 363 634 outlet;
#X obj 674 152 r volume_recording;
#X msg 18 34 read -resize taconeo.wav birdsR birdsL;
#X obj 756 505 moses -20;
#X obj 303 502 moses -30;
#X connect 2 0 4 0;
#X connect 3 0 5 0;
#X connect 6 0 2 0;
#X connect 6 0 21 0;
#X connect 7 0 8 0;
#X connect 7 0 13 0;
#X connect 8 0 4 1;
#X connect 11 0 27 0;
#X connect 13 0 15 0;
#X connect 15 0 12 0;
#X connect 15 0 16 0;
#X connect 16 0 28 0;
#X connect 19 0 6 0;
#X connect 19 0 7 0;
#X connect 21 0 22 0;
#X connect 22 0 20 0;
#X connect 22 0 23 0;
#X connect 23 0 29 0;
#X connect 24 0 25 0;
#X connect 26 0 8 1;
#X connect 26 0 2 1;
#X connect 27 0 0 0;
#X connect 28 1 17 0;
#X connect 29 1 24 0;
#X restore 778 230 pd gate_kick;
#X obj 778 175 bng 19 250 50 0 empty empty empty 0 -10 0 12 #fcfcfc #000000 #000000;
#X obj 754 450 dac~, f 8;
#X msg 778 281 next \$1;
#X obj 778 332 clone kick808 64;
#X obj 677 161 tgl 19 0 empty empty empty 0 -10 0 12 #fcfcfc #000000 #000000 0 1;
#X obj 678 200 metro 10;
#X msg 678 224 1;
#X connect 0 0 3 0;
#X connect 1 0 0 0;
#X connect 3 0 4 0;
#X connect 4 0 2 0;
#X connect 4 0 2 1;
#X connect 5 0 6 0;
#X connect 6 0 7 0;
