#N canvas 18 25 1920 941 12;
#X obj 86 283 bng 19 250 50 0 empty empty empty 0 -10 0 12 #fcfcfc #000000 #000000;
#X obj 86 307 t b b b b;
#X obj 189 368 makenote 80 500;
#X obj 189 395 noteout 1;
#X msg 86 335 60;
#X msg 124 335 63;
#X msg 166 335 65;
#X obj 199 283 bng 19 250 50 0 empty empty empty 0 -10 0 12 #fcfcfc #000000 #000000;
#X obj 199 307 t b b b b;
#X msg 199 335 55;
#X msg 237 335 58;
#X msg 276 335 60;
#X obj 82 38 bng 19 250 50 0 empty empty empty 0 -10 0 12 #fcfcfc #000000 #000000;
#X obj 82 75 metro 500;
#X obj 81 131 i;
#X obj 115 131 + 1;
#X obj 36 92 bng 19 250 50 0 empty empty empty 0 -10 0 12 #fcfcfc #000000 #000000;
#X obj 119 156 % 8;
#X obj 124 184 nbx 1 17 -1e+37 1e+37 0 0 empty empty empty 0 -10 0 12 #fcfcfc #000000 #000000 0 256;
#X obj 86 213 select 0 1 2 3 4 5 6 7;
#X msg 110 38 0;
#X msg 145 38 500;
#X text 26 15 /// S E Q U E N C I A D O R 1;
#X text 369 135 Este secuenciador sirve para mandar acordes a tu DAW favorito;
#X connect 0 0 1 0;
#X connect 1 0 4 0;
#X connect 1 1 5 0;
#X connect 1 2 6 0;
#X connect 2 0 3 0;
#X connect 2 1 3 1;
#X connect 4 0 2 0;
#X connect 5 0 2 0;
#X connect 6 0 2 0;
#X connect 7 0 8 0;
#X connect 8 0 9 0;
#X connect 8 1 10 0;
#X connect 8 2 11 0;
#X connect 9 0 2 0;
#X connect 10 0 2 0;
#X connect 11 0 2 0;
#X connect 12 0 13 0;
#X connect 13 0 14 0;
#X connect 13 0 16 0;
#X connect 14 0 15 0;
#X connect 14 0 17 0;
#X connect 15 0 14 1;
#X connect 17 0 18 0;
#X connect 17 0 19 0;
#X connect 19 0 0 0;
#X connect 19 4 0 0;
#X connect 19 6 7 0;
#X connect 20 0 13 0;
#X connect 21 0 13 1;
